<mxfile host="app.diagrams.net" agent="Mozilla/5.0 (Windows NT 10.0; Win64; x64) AppleWebKit/537.36 (KHTML, like Gecko) Chrome/131.0.0.0 Safari/537.36" version="25.0.3">
  <diagram name="Page-1" id="9y1t-p31IOfAXxdN0K5o">
    <mxGraphModel dx="2068" dy="840" grid="1" gridSize="10" guides="1" tooltips="1" connect="1" arrows="1" fold="1" page="1" pageScale="1" pageWidth="827" pageHeight="1169" math="0" shadow="0">
      <root>
        <mxCell id="0" />
        <mxCell id="1" parent="0" />
        <mxCell id="ZfFCDJcKIeYzzecp-zNq-1" value="ROOT" style="rounded=0;whiteSpace=wrap;html=1;" parent="1" vertex="1">
          <mxGeometry x="800" y="100" width="60" height="30" as="geometry" />
        </mxCell>
        <mxCell id="ZfFCDJcKIeYzzecp-zNq-2" value="name" style="rounded=0;whiteSpace=wrap;html=1;" parent="1" vertex="1">
          <mxGeometry x="20" y="220" width="60" height="30" as="geometry" />
        </mxCell>
        <mxCell id="BcuslAUmBP9xwM7Xt82V-2" value="" style="rounded=0;whiteSpace=wrap;html=1;" vertex="1" parent="1">
          <mxGeometry x="140" y="790" width="60" height="30" as="geometry" />
        </mxCell>
        <mxCell id="BcuslAUmBP9xwM7Xt82V-9" value="description" style="rounded=0;whiteSpace=wrap;html=1;" vertex="1" parent="1">
          <mxGeometry x="180" y="220" width="60" height="30" as="geometry" />
        </mxCell>
        <mxCell id="BcuslAUmBP9xwM7Xt82V-10" value="title" style="rounded=0;whiteSpace=wrap;html=1;" vertex="1" parent="1">
          <mxGeometry x="100" y="220" width="60" height="30" as="geometry" />
        </mxCell>
        <mxCell id="BcuslAUmBP9xwM7Xt82V-18" value="" style="endArrow=oval;html=1;rounded=0;startArrow=none;startFill=0;targetPerimeterSpacing=10;endFill=1;strokeWidth=1;endSize=10;" edge="1" parent="1">
          <mxGeometry width="50" height="50" relative="1" as="geometry">
            <mxPoint x="320" y="827.37" as="sourcePoint" />
            <mxPoint x="320" y="907.37" as="targetPoint" />
            <Array as="points" />
          </mxGeometry>
        </mxCell>
        <mxCell id="BcuslAUmBP9xwM7Xt82V-23" value="" style="endArrow=oval;html=1;rounded=0;startArrow=none;startFill=0;targetPerimeterSpacing=10;endFill=0;strokeWidth=1;endSize=10;" edge="1" parent="1">
          <mxGeometry width="50" height="50" relative="1" as="geometry">
            <mxPoint x="360" y="827.37" as="sourcePoint" />
            <mxPoint x="360" y="907.37" as="targetPoint" />
            <Array as="points" />
          </mxGeometry>
        </mxCell>
        <mxCell id="BcuslAUmBP9xwM7Xt82V-28" value="" style="endArrow=none;html=1;rounded=0;startArrow=none;startFill=0;targetPerimeterSpacing=0;endFill=0;strokeWidth=1;endSize=6;" edge="1" parent="1">
          <mxGeometry width="50" height="50" relative="1" as="geometry">
            <mxPoint x="410" y="922.62" as="sourcePoint" />
            <mxPoint x="410" y="782.62" as="targetPoint" />
            <Array as="points" />
          </mxGeometry>
        </mxCell>
        <mxCell id="BcuslAUmBP9xwM7Xt82V-29" value="" style="endArrow=none;html=1;rounded=0;startArrow=none;startFill=0;targetPerimeterSpacing=0;endFill=0;strokeWidth=1;endSize=6;" edge="1" parent="1">
          <mxGeometry width="50" height="50" relative="1" as="geometry">
            <mxPoint x="460" y="912.62" as="sourcePoint" />
            <mxPoint x="410" y="782.62" as="targetPoint" />
            <Array as="points" />
          </mxGeometry>
        </mxCell>
        <mxCell id="BcuslAUmBP9xwM7Xt82V-30" value="" style="endArrow=none;html=1;rounded=0;startArrow=none;startFill=0;targetPerimeterSpacing=0;endFill=0;strokeWidth=1;endSize=6;" edge="1" parent="1">
          <mxGeometry width="50" height="50" relative="1" as="geometry">
            <mxPoint x="510" y="872.62" as="sourcePoint" />
            <mxPoint x="410" y="782.62" as="targetPoint" />
            <Array as="points" />
          </mxGeometry>
        </mxCell>
        <mxCell id="BcuslAUmBP9xwM7Xt82V-31" value="" style="endArrow=none;html=1;rounded=0;startArrow=none;startFill=0;targetPerimeterSpacing=0;endFill=0;strokeWidth=1;endSize=6;curved=1;" edge="1" parent="1">
          <mxGeometry width="50" height="50" relative="1" as="geometry">
            <mxPoint x="470" y="832.62" as="sourcePoint" />
            <mxPoint x="410" y="862.62" as="targetPoint" />
            <Array as="points">
              <mxPoint x="460" y="872.62" />
            </Array>
          </mxGeometry>
        </mxCell>
        <mxCell id="BcuslAUmBP9xwM7Xt82V-40" value="" style="endArrow=none;html=1;rounded=0;entryX=0.5;entryY=1;entryDx=0;entryDy=0;exitX=0.5;exitY=0;exitDx=0;exitDy=0;" edge="1" parent="1">
          <mxGeometry width="50" height="50" relative="1" as="geometry">
            <mxPoint x="480" y="802.62" as="sourcePoint" />
            <mxPoint x="520" y="782.62" as="targetPoint" />
          </mxGeometry>
        </mxCell>
        <mxCell id="BcuslAUmBP9xwM7Xt82V-41" value="" style="endArrow=none;html=1;rounded=0;exitX=0.5;exitY=0;exitDx=0;exitDy=0;" edge="1" parent="1">
          <mxGeometry width="50" height="50" relative="1" as="geometry">
            <mxPoint x="560" y="802.62" as="sourcePoint" />
            <mxPoint x="520" y="782.62" as="targetPoint" />
          </mxGeometry>
        </mxCell>
        <mxCell id="BcuslAUmBP9xwM7Xt82V-42" value="" style="triangle;whiteSpace=wrap;html=1;rotation=-90;fillColor=#000000;" vertex="1" parent="1">
          <mxGeometry x="513.5" y="767.37" width="12.5" height="40" as="geometry" />
        </mxCell>
        <mxCell id="BcuslAUmBP9xwM7Xt82V-54" value="" style="rounded=0;whiteSpace=wrap;html=1;" vertex="1" parent="1">
          <mxGeometry x="150" y="800" width="60" height="30" as="geometry" />
        </mxCell>
        <mxCell id="BcuslAUmBP9xwM7Xt82V-55" value="" style="rounded=0;whiteSpace=wrap;html=1;" vertex="1" parent="1">
          <mxGeometry x="160" y="810" width="60" height="30" as="geometry" />
        </mxCell>
        <mxCell id="BcuslAUmBP9xwM7Xt82V-80" value="" style="rounded=0;whiteSpace=wrap;html=1;" vertex="1" parent="1">
          <mxGeometry x="170" y="820" width="60" height="30" as="geometry" />
        </mxCell>
        <mxCell id="BcuslAUmBP9xwM7Xt82V-100" value="" style="rounded=0;whiteSpace=wrap;html=1;" vertex="1" parent="1">
          <mxGeometry x="150" y="800" width="60" height="30" as="geometry" />
        </mxCell>
        <mxCell id="BcuslAUmBP9xwM7Xt82V-101" value="" style="rounded=0;whiteSpace=wrap;html=1;" vertex="1" parent="1">
          <mxGeometry x="160" y="810" width="60" height="30" as="geometry" />
        </mxCell>
        <mxCell id="BcuslAUmBP9xwM7Xt82V-102" value="" style="rounded=0;whiteSpace=wrap;html=1;" vertex="1" parent="1">
          <mxGeometry x="170" y="820" width="60" height="30" as="geometry" />
        </mxCell>
        <mxCell id="BcuslAUmBP9xwM7Xt82V-103" value="" style="rounded=0;whiteSpace=wrap;html=1;" vertex="1" parent="1">
          <mxGeometry x="180" y="830" width="60" height="30" as="geometry" />
        </mxCell>
        <mxCell id="BcuslAUmBP9xwM7Xt82V-104" value="" style="rounded=0;whiteSpace=wrap;html=1;" vertex="1" parent="1">
          <mxGeometry x="160" y="810" width="60" height="30" as="geometry" />
        </mxCell>
        <mxCell id="BcuslAUmBP9xwM7Xt82V-105" value="" style="rounded=0;whiteSpace=wrap;html=1;" vertex="1" parent="1">
          <mxGeometry x="170" y="820" width="60" height="30" as="geometry" />
        </mxCell>
        <mxCell id="BcuslAUmBP9xwM7Xt82V-106" value="" style="rounded=0;whiteSpace=wrap;html=1;" vertex="1" parent="1">
          <mxGeometry x="180" y="830" width="60" height="30" as="geometry" />
        </mxCell>
        <mxCell id="BcuslAUmBP9xwM7Xt82V-107" value="" style="rounded=0;whiteSpace=wrap;html=1;" vertex="1" parent="1">
          <mxGeometry x="190" y="840" width="60" height="30" as="geometry" />
        </mxCell>
        <mxCell id="BcuslAUmBP9xwM7Xt82V-108" value="" style="rounded=0;whiteSpace=wrap;html=1;" vertex="1" parent="1">
          <mxGeometry x="170" y="820" width="60" height="30" as="geometry" />
        </mxCell>
        <mxCell id="BcuslAUmBP9xwM7Xt82V-109" value="" style="rounded=0;whiteSpace=wrap;html=1;" vertex="1" parent="1">
          <mxGeometry x="180" y="830" width="60" height="30" as="geometry" />
        </mxCell>
        <mxCell id="BcuslAUmBP9xwM7Xt82V-110" value="" style="rounded=0;whiteSpace=wrap;html=1;" vertex="1" parent="1">
          <mxGeometry x="190" y="840" width="60" height="30" as="geometry" />
        </mxCell>
        <mxCell id="BcuslAUmBP9xwM7Xt82V-119" value="" style="rounded=0;whiteSpace=wrap;html=1;" vertex="1" parent="1">
          <mxGeometry x="90" y="740" width="60" height="30" as="geometry" />
        </mxCell>
        <mxCell id="BcuslAUmBP9xwM7Xt82V-312" value="" style="endArrow=none;html=1;rounded=0;entryX=0.5;entryY=1;entryDx=0;entryDy=0;exitX=0.5;exitY=0;exitDx=0;exitDy=0;" edge="1" parent="1" source="BcuslAUmBP9xwM7Xt82V-461" target="BcuslAUmBP9xwM7Xt82V-469">
          <mxGeometry width="50" height="50" relative="1" as="geometry">
            <mxPoint x="2010" y="920" as="sourcePoint" />
            <mxPoint x="2060" y="870" as="targetPoint" />
          </mxGeometry>
        </mxCell>
        <mxCell id="BcuslAUmBP9xwM7Xt82V-313" value="" style="endArrow=none;html=1;rounded=0;entryX=0.5;entryY=1;entryDx=0;entryDy=0;" edge="1" parent="1" target="BcuslAUmBP9xwM7Xt82V-468">
          <mxGeometry width="50" height="50" relative="1" as="geometry">
            <mxPoint x="2070" y="950" as="sourcePoint" />
            <mxPoint x="2060" y="870" as="targetPoint" />
          </mxGeometry>
        </mxCell>
        <mxCell id="BcuslAUmBP9xwM7Xt82V-314" value="" style="endArrow=none;html=1;rounded=0;entryX=0.5;entryY=1;entryDx=0;entryDy=0;exitX=0.5;exitY=0;exitDx=0;exitDy=0;" edge="1" parent="1" source="BcuslAUmBP9xwM7Xt82V-461" target="BcuslAUmBP9xwM7Xt82V-453">
          <mxGeometry width="50" height="50" relative="1" as="geometry">
            <mxPoint x="2010" y="920" as="sourcePoint" />
            <mxPoint x="2060" y="870" as="targetPoint" />
          </mxGeometry>
        </mxCell>
        <mxCell id="BcuslAUmBP9xwM7Xt82V-315" value="" style="endArrow=none;html=1;rounded=0;entryX=0.5;entryY=1;entryDx=0;entryDy=0;" edge="1" parent="1" target="BcuslAUmBP9xwM7Xt82V-477">
          <mxGeometry width="50" height="50" relative="1" as="geometry">
            <mxPoint x="2069.71" y="950" as="sourcePoint" />
            <mxPoint x="2069.71" y="890" as="targetPoint" />
          </mxGeometry>
        </mxCell>
        <mxCell id="BcuslAUmBP9xwM7Xt82V-316" value="" style="endArrow=none;html=1;rounded=0;entryX=0.5;entryY=1;entryDx=0;entryDy=0;" edge="1" parent="1" target="BcuslAUmBP9xwM7Xt82V-467">
          <mxGeometry width="50" height="50" relative="1" as="geometry">
            <mxPoint x="2070" y="950" as="sourcePoint" />
            <mxPoint x="2060" y="870" as="targetPoint" />
          </mxGeometry>
        </mxCell>
        <mxCell id="BcuslAUmBP9xwM7Xt82V-317" value="" style="endArrow=none;html=1;rounded=0;exitX=0.5;exitY=0;exitDx=0;exitDy=0;" edge="1" parent="1" source="BcuslAUmBP9xwM7Xt82V-469">
          <mxGeometry width="50" height="50" relative="1" as="geometry">
            <mxPoint x="2070" y="870" as="sourcePoint" />
            <mxPoint x="2150" y="790" as="targetPoint" />
          </mxGeometry>
        </mxCell>
        <mxCell id="BcuslAUmBP9xwM7Xt82V-318" value="" style="endArrow=none;html=1;rounded=0;exitX=0.5;exitY=0;exitDx=0;exitDy=0;" edge="1" parent="1" source="BcuslAUmBP9xwM7Xt82V-466">
          <mxGeometry width="50" height="50" relative="1" as="geometry">
            <mxPoint x="2070" y="870" as="sourcePoint" />
            <mxPoint x="2150" y="790" as="targetPoint" />
          </mxGeometry>
        </mxCell>
        <mxCell id="BcuslAUmBP9xwM7Xt82V-319" value="" style="endArrow=none;html=1;rounded=0;exitX=0.5;exitY=0;exitDx=0;exitDy=0;" edge="1" parent="1" source="BcuslAUmBP9xwM7Xt82V-468">
          <mxGeometry width="50" height="50" relative="1" as="geometry">
            <mxPoint x="2070" y="870" as="sourcePoint" />
            <mxPoint x="2150" y="790" as="targetPoint" />
          </mxGeometry>
        </mxCell>
        <mxCell id="BcuslAUmBP9xwM7Xt82V-320" value="" style="endArrow=none;html=1;rounded=0;exitX=0.5;exitY=0;exitDx=0;exitDy=0;" edge="1" parent="1" source="BcuslAUmBP9xwM7Xt82V-470">
          <mxGeometry width="50" height="50" relative="1" as="geometry">
            <mxPoint x="2070" y="870" as="sourcePoint" />
            <mxPoint x="2150" y="790" as="targetPoint" />
          </mxGeometry>
        </mxCell>
        <mxCell id="BcuslAUmBP9xwM7Xt82V-321" value="" style="endArrow=none;html=1;rounded=0;entryX=0.5;entryY=1;entryDx=0;entryDy=0;exitX=0.5;exitY=0;exitDx=0;exitDy=0;" edge="1" parent="1" source="BcuslAUmBP9xwM7Xt82V-451" target="BcuslAUmBP9xwM7Xt82V-454">
          <mxGeometry width="50" height="50" relative="1" as="geometry">
            <mxPoint x="1780" y="860" as="sourcePoint" />
            <mxPoint x="1830" y="810" as="targetPoint" />
          </mxGeometry>
        </mxCell>
        <mxCell id="BcuslAUmBP9xwM7Xt82V-322" value="" style="endArrow=none;html=1;rounded=0;entryX=0.5;entryY=1;entryDx=0;entryDy=0;exitX=0.5;exitY=0;exitDx=0;exitDy=0;" edge="1" parent="1" source="BcuslAUmBP9xwM7Xt82V-449" target="BcuslAUmBP9xwM7Xt82V-454">
          <mxGeometry width="50" height="50" relative="1" as="geometry">
            <mxPoint x="1840" y="860" as="sourcePoint" />
            <mxPoint x="1890" y="810" as="targetPoint" />
          </mxGeometry>
        </mxCell>
        <mxCell id="BcuslAUmBP9xwM7Xt82V-323" value="" style="endArrow=none;html=1;rounded=0;entryX=0.5;entryY=1;entryDx=0;entryDy=0;exitX=0.5;exitY=0;exitDx=0;exitDy=0;" edge="1" parent="1" source="BcuslAUmBP9xwM7Xt82V-399" target="BcuslAUmBP9xwM7Xt82V-454">
          <mxGeometry width="50" height="50" relative="1" as="geometry">
            <mxPoint x="1780" y="860" as="sourcePoint" />
            <mxPoint x="1830" y="810" as="targetPoint" />
          </mxGeometry>
        </mxCell>
        <mxCell id="BcuslAUmBP9xwM7Xt82V-324" value="" style="endArrow=none;html=1;rounded=0;entryX=0.5;entryY=1;entryDx=0;entryDy=0;exitX=0.5;exitY=0;exitDx=0;exitDy=0;" edge="1" parent="1" source="BcuslAUmBP9xwM7Xt82V-455" target="BcuslAUmBP9xwM7Xt82V-454">
          <mxGeometry width="50" height="50" relative="1" as="geometry">
            <mxPoint x="1780" y="860" as="sourcePoint" />
            <mxPoint x="1830" y="810" as="targetPoint" />
          </mxGeometry>
        </mxCell>
        <mxCell id="BcuslAUmBP9xwM7Xt82V-325" value="" style="endArrow=none;html=1;rounded=0;entryX=0.5;entryY=1;entryDx=0;entryDy=0;exitX=0.5;exitY=0;exitDx=0;exitDy=0;" edge="1" parent="1" source="BcuslAUmBP9xwM7Xt82V-452" target="BcuslAUmBP9xwM7Xt82V-454">
          <mxGeometry width="50" height="50" relative="1" as="geometry">
            <mxPoint x="1780" y="860" as="sourcePoint" />
            <mxPoint x="1830" y="810" as="targetPoint" />
          </mxGeometry>
        </mxCell>
        <mxCell id="BcuslAUmBP9xwM7Xt82V-326" value="" style="endArrow=none;html=1;rounded=0;entryX=0.5;entryY=1;entryDx=0;entryDy=0;exitX=0.5;exitY=0;exitDx=0;exitDy=0;" edge="1" parent="1" source="BcuslAUmBP9xwM7Xt82V-450" target="BcuslAUmBP9xwM7Xt82V-454">
          <mxGeometry width="50" height="50" relative="1" as="geometry">
            <mxPoint x="1780" y="860" as="sourcePoint" />
            <mxPoint x="1830" y="810" as="targetPoint" />
          </mxGeometry>
        </mxCell>
        <mxCell id="BcuslAUmBP9xwM7Xt82V-327" value="" style="endArrow=none;html=1;rounded=0;exitX=0.5;exitY=0;exitDx=0;exitDy=0;" edge="1" parent="1" source="BcuslAUmBP9xwM7Xt82V-414">
          <mxGeometry width="50" height="50" relative="1" as="geometry">
            <mxPoint x="1446.5" y="910" as="sourcePoint" />
            <mxPoint x="1616.5" y="860" as="targetPoint" />
          </mxGeometry>
        </mxCell>
        <mxCell id="BcuslAUmBP9xwM7Xt82V-328" value="" style="endArrow=none;html=1;rounded=0;exitX=0.5;exitY=0;exitDx=0;exitDy=0;" edge="1" parent="1" source="BcuslAUmBP9xwM7Xt82V-442">
          <mxGeometry width="50" height="50" relative="1" as="geometry">
            <mxPoint x="1446.5" y="910" as="sourcePoint" />
            <mxPoint x="1616.5" y="860" as="targetPoint" />
          </mxGeometry>
        </mxCell>
        <mxCell id="BcuslAUmBP9xwM7Xt82V-329" value="" style="endArrow=none;html=1;rounded=0;entryX=0.5;entryY=0;entryDx=0;entryDy=0;" edge="1" parent="1" target="BcuslAUmBP9xwM7Xt82V-413">
          <mxGeometry width="50" height="50" relative="1" as="geometry">
            <mxPoint x="1616.5" y="860" as="sourcePoint" />
            <mxPoint x="1496.5" y="860" as="targetPoint" />
          </mxGeometry>
        </mxCell>
        <mxCell id="BcuslAUmBP9xwM7Xt82V-330" value="" style="endArrow=none;html=1;rounded=0;entryX=0.5;entryY=0;entryDx=0;entryDy=0;" edge="1" parent="1" target="BcuslAUmBP9xwM7Xt82V-412">
          <mxGeometry width="50" height="50" relative="1" as="geometry">
            <mxPoint x="1616.5" y="860" as="sourcePoint" />
            <mxPoint x="1496.5" y="860" as="targetPoint" />
          </mxGeometry>
        </mxCell>
        <mxCell id="BcuslAUmBP9xwM7Xt82V-331" value="" style="endArrow=none;html=1;rounded=0;exitX=0.5;exitY=0;exitDx=0;exitDy=0;" edge="1" parent="1" source="BcuslAUmBP9xwM7Xt82V-423">
          <mxGeometry width="50" height="50" relative="1" as="geometry">
            <mxPoint x="1260" y="980" as="sourcePoint" />
            <mxPoint x="1330" y="860" as="targetPoint" />
          </mxGeometry>
        </mxCell>
        <mxCell id="BcuslAUmBP9xwM7Xt82V-332" value="" style="endArrow=none;html=1;rounded=0;exitX=0.5;exitY=0;exitDx=0;exitDy=0;" edge="1" parent="1" source="BcuslAUmBP9xwM7Xt82V-422">
          <mxGeometry width="50" height="50" relative="1" as="geometry">
            <mxPoint x="1260" y="980" as="sourcePoint" />
            <mxPoint x="1330" y="860" as="targetPoint" />
          </mxGeometry>
        </mxCell>
        <mxCell id="BcuslAUmBP9xwM7Xt82V-333" value="" style="endArrow=none;html=1;rounded=0;startArrow=none;startFill=0;targetPerimeterSpacing=0;endFill=0;strokeWidth=1;endSize=6;exitX=0.5;exitY=0;exitDx=0;exitDy=0;" edge="1" parent="1" source="BcuslAUmBP9xwM7Xt82V-420">
          <mxGeometry width="50" height="50" relative="1" as="geometry">
            <mxPoint x="1350" y="1070" as="sourcePoint" />
            <mxPoint x="1330" y="860" as="targetPoint" />
            <Array as="points" />
          </mxGeometry>
        </mxCell>
        <mxCell id="BcuslAUmBP9xwM7Xt82V-334" value="" style="endArrow=none;html=1;rounded=0;startArrow=none;startFill=0;targetPerimeterSpacing=0;endFill=0;strokeWidth=1;endSize=6;exitX=0.5;exitY=0;exitDx=0;exitDy=0;" edge="1" parent="1" source="BcuslAUmBP9xwM7Xt82V-424">
          <mxGeometry width="50" height="50" relative="1" as="geometry">
            <mxPoint x="1420" y="1070" as="sourcePoint" />
            <mxPoint x="1330" y="860" as="targetPoint" />
            <Array as="points" />
          </mxGeometry>
        </mxCell>
        <mxCell id="BcuslAUmBP9xwM7Xt82V-335" value="" style="endArrow=none;html=1;rounded=0;startArrow=none;startFill=0;targetPerimeterSpacing=0;endFill=0;strokeWidth=1;endSize=6;exitX=0.5;exitY=0;exitDx=0;exitDy=0;" edge="1" parent="1" source="BcuslAUmBP9xwM7Xt82V-421">
          <mxGeometry width="50" height="50" relative="1" as="geometry">
            <mxPoint x="1247" y="1075" as="sourcePoint" />
            <mxPoint x="1330" y="860" as="targetPoint" />
            <Array as="points" />
          </mxGeometry>
        </mxCell>
        <mxCell id="BcuslAUmBP9xwM7Xt82V-336" value="url" style="rounded=0;whiteSpace=wrap;html=1;" vertex="1" parent="1">
          <mxGeometry x="620" y="890" width="60" height="30" as="geometry" />
        </mxCell>
        <mxCell id="BcuslAUmBP9xwM7Xt82V-337" value="style" style="rounded=0;whiteSpace=wrap;html=1;" vertex="1" parent="1">
          <mxGeometry x="1970" y="710" width="60" height="30" as="geometry" />
        </mxCell>
        <mxCell id="BcuslAUmBP9xwM7Xt82V-338" value="api" style="rounded=0;whiteSpace=wrap;html=1;" vertex="1" parent="1">
          <mxGeometry x="910" y="730" width="60" height="30" as="geometry" />
        </mxCell>
        <mxCell id="BcuslAUmBP9xwM7Xt82V-339" value="route Struct" style="rounded=0;whiteSpace=wrap;html=1;" vertex="1" parent="1">
          <mxGeometry x="689.75" y="840" width="60" height="30" as="geometry" />
        </mxCell>
        <mxCell id="BcuslAUmBP9xwM7Xt82V-340" value="apis" style="rounded=0;whiteSpace=wrap;html=1;" vertex="1" parent="1">
          <mxGeometry x="980" y="790" width="60" height="30" as="geometry" />
        </mxCell>
        <mxCell id="BcuslAUmBP9xwM7Xt82V-341" value="port" style="rounded=0;whiteSpace=wrap;html=1;" vertex="1" parent="1">
          <mxGeometry x="910" y="790" width="60" height="30" as="geometry" />
        </mxCell>
        <mxCell id="BcuslAUmBP9xwM7Xt82V-342" value="base" style="rounded=0;whiteSpace=wrap;html=1;" vertex="1" parent="1">
          <mxGeometry x="840" y="790" width="60" height="30" as="geometry" />
        </mxCell>
        <mxCell id="BcuslAUmBP9xwM7Xt82V-343" value="PrivateOnly" style="rounded=0;whiteSpace=wrap;html=1;" vertex="1" parent="1">
          <mxGeometry x="730" y="940" width="60" height="30" as="geometry" />
        </mxCell>
        <mxCell id="BcuslAUmBP9xwM7Xt82V-344" value="PublicOnly" style="rounded=0;whiteSpace=wrap;html=1;" vertex="1" parent="1">
          <mxGeometry x="650" y="940" width="60" height="30" as="geometry" />
        </mxCell>
        <mxCell id="BcuslAUmBP9xwM7Xt82V-345" value="access" style="rounded=0;whiteSpace=wrap;html=1;" vertex="1" parent="1">
          <mxGeometry x="690" y="890" width="60" height="30" as="geometry" />
        </mxCell>
        <mxCell id="BcuslAUmBP9xwM7Xt82V-346" value="" style="endArrow=oval;html=1;rounded=0;startArrow=none;startFill=0;targetPerimeterSpacing=10;endFill=1;strokeWidth=1;endSize=10;entryX=0.5;entryY=0;entryDx=0;entryDy=0;exitX=0.5;exitY=1;exitDx=0;exitDy=0;" edge="1" parent="1" source="BcuslAUmBP9xwM7Xt82V-339" target="BcuslAUmBP9xwM7Xt82V-336">
          <mxGeometry width="50" height="50" relative="1" as="geometry">
            <mxPoint x="806.5" y="900" as="sourcePoint" />
            <mxPoint x="466.5" y="970" as="targetPoint" />
            <Array as="points" />
          </mxGeometry>
        </mxCell>
        <mxCell id="BcuslAUmBP9xwM7Xt82V-347" value="" style="endArrow=oval;html=1;rounded=0;startArrow=none;startFill=0;targetPerimeterSpacing=10;endFill=0;strokeWidth=1;endSize=10;entryX=0.5;entryY=0;entryDx=0;entryDy=0;exitX=0.5;exitY=1;exitDx=0;exitDy=0;" edge="1" parent="1" source="BcuslAUmBP9xwM7Xt82V-339" target="BcuslAUmBP9xwM7Xt82V-345">
          <mxGeometry width="50" height="50" relative="1" as="geometry">
            <mxPoint x="786.5" y="850" as="sourcePoint" />
            <mxPoint x="746.4999999999999" y="890" as="targetPoint" />
            <Array as="points" />
          </mxGeometry>
        </mxCell>
        <mxCell id="BcuslAUmBP9xwM7Xt82V-348" value="" style="endArrow=none;html=1;rounded=0;entryX=0.5;entryY=1;entryDx=0;entryDy=0;exitX=0.5;exitY=0;exitDx=0;exitDy=0;" edge="1" parent="1" source="BcuslAUmBP9xwM7Xt82V-344" target="BcuslAUmBP9xwM7Xt82V-345">
          <mxGeometry width="50" height="50" relative="1" as="geometry">
            <mxPoint x="679.9999999999999" y="940" as="sourcePoint" />
            <mxPoint x="560" y="930" as="targetPoint" />
          </mxGeometry>
        </mxCell>
        <mxCell id="BcuslAUmBP9xwM7Xt82V-349" value="" style="endArrow=none;html=1;rounded=0;exitX=0.5;exitY=0;exitDx=0;exitDy=0;" edge="1" parent="1" source="BcuslAUmBP9xwM7Xt82V-343">
          <mxGeometry width="50" height="50" relative="1" as="geometry">
            <mxPoint x="760" y="930" as="sourcePoint" />
            <mxPoint x="720" y="920" as="targetPoint" />
          </mxGeometry>
        </mxCell>
        <mxCell id="BcuslAUmBP9xwM7Xt82V-350" value="" style="triangle;whiteSpace=wrap;html=1;rotation=-90;fillColor=#000000;" vertex="1" parent="1">
          <mxGeometry x="713.5" y="904.75" width="12.5" height="40" as="geometry" />
        </mxCell>
        <mxCell id="BcuslAUmBP9xwM7Xt82V-351" value="routes" style="rounded=0;whiteSpace=wrap;html=1;" vertex="1" parent="1">
          <mxGeometry x="690.25" y="730" width="60" height="30" as="geometry" />
        </mxCell>
        <mxCell id="BcuslAUmBP9xwM7Xt82V-352" value="route1" style="rounded=0;whiteSpace=wrap;html=1;" vertex="1" parent="1">
          <mxGeometry x="620" y="790" width="60" height="30" as="geometry" />
        </mxCell>
        <mxCell id="BcuslAUmBP9xwM7Xt82V-353" value="route2" style="rounded=0;whiteSpace=wrap;html=1;" vertex="1" parent="1">
          <mxGeometry x="690.25" y="790" width="60" height="30" as="geometry" />
        </mxCell>
        <mxCell id="BcuslAUmBP9xwM7Xt82V-354" value="..." style="rounded=0;whiteSpace=wrap;html=1;" vertex="1" parent="1">
          <mxGeometry x="760.25" y="790" width="60" height="30" as="geometry" />
        </mxCell>
        <mxCell id="BcuslAUmBP9xwM7Xt82V-355" value="" style="endArrow=none;html=1;rounded=0;entryX=0.5;entryY=1;entryDx=0;entryDy=0;exitX=0.5;exitY=0;exitDx=0;exitDy=0;" edge="1" parent="1" source="BcuslAUmBP9xwM7Xt82V-339" target="BcuslAUmBP9xwM7Xt82V-352">
          <mxGeometry width="50" height="50" relative="1" as="geometry">
            <mxPoint x="730.25" y="930" as="sourcePoint" />
            <mxPoint x="780.25" y="880" as="targetPoint" />
          </mxGeometry>
        </mxCell>
        <mxCell id="BcuslAUmBP9xwM7Xt82V-356" value="" style="endArrow=none;html=1;rounded=0;entryX=0.5;entryY=1;entryDx=0;entryDy=0;exitX=0.5;exitY=0;exitDx=0;exitDy=0;" edge="1" parent="1" source="BcuslAUmBP9xwM7Xt82V-339" target="BcuslAUmBP9xwM7Xt82V-353">
          <mxGeometry width="50" height="50" relative="1" as="geometry">
            <mxPoint x="730.25" y="930" as="sourcePoint" />
            <mxPoint x="780.25" y="880" as="targetPoint" />
          </mxGeometry>
        </mxCell>
        <mxCell id="BcuslAUmBP9xwM7Xt82V-357" value="" style="endArrow=none;html=1;rounded=0;entryX=0.5;entryY=1;entryDx=0;entryDy=0;exitX=0.5;exitY=0;exitDx=0;exitDy=0;" edge="1" parent="1" source="BcuslAUmBP9xwM7Xt82V-339" target="BcuslAUmBP9xwM7Xt82V-354">
          <mxGeometry width="50" height="50" relative="1" as="geometry">
            <mxPoint x="730.25" y="930" as="sourcePoint" />
            <mxPoint x="780.25" y="880" as="targetPoint" />
          </mxGeometry>
        </mxCell>
        <mxCell id="BcuslAUmBP9xwM7Xt82V-358" value="" style="endArrow=none;html=1;rounded=0;startArrow=none;startFill=0;targetPerimeterSpacing=0;endFill=0;strokeWidth=1;endSize=6;exitX=0.5;exitY=0;exitDx=0;exitDy=0;" edge="1" parent="1" source="BcuslAUmBP9xwM7Xt82V-353">
          <mxGeometry width="50" height="50" relative="1" as="geometry">
            <mxPoint x="840.13" y="920" as="sourcePoint" />
            <mxPoint x="720.13" y="760" as="targetPoint" />
            <Array as="points" />
          </mxGeometry>
        </mxCell>
        <mxCell id="BcuslAUmBP9xwM7Xt82V-359" value="" style="endArrow=none;html=1;rounded=0;startArrow=none;startFill=0;targetPerimeterSpacing=0;endFill=0;strokeWidth=1;endSize=6;entryX=0.5;entryY=1;entryDx=0;entryDy=0;exitX=0.5;exitY=0;exitDx=0;exitDy=0;" edge="1" parent="1" source="BcuslAUmBP9xwM7Xt82V-354" target="BcuslAUmBP9xwM7Xt82V-351">
          <mxGeometry width="50" height="50" relative="1" as="geometry">
            <mxPoint x="960.13" y="885" as="sourcePoint" />
            <mxPoint x="860.13" y="795" as="targetPoint" />
            <Array as="points" />
          </mxGeometry>
        </mxCell>
        <mxCell id="BcuslAUmBP9xwM7Xt82V-360" value="" style="endArrow=none;html=1;rounded=0;startArrow=none;startFill=0;targetPerimeterSpacing=0;endFill=0;strokeWidth=1;endSize=6;curved=1;" edge="1" parent="1">
          <mxGeometry width="50" height="50" relative="1" as="geometry">
            <mxPoint x="760.13" y="770" as="sourcePoint" />
            <mxPoint x="680.13" y="770" as="targetPoint" />
            <Array as="points">
              <mxPoint x="720.13" y="790" />
            </Array>
          </mxGeometry>
        </mxCell>
        <mxCell id="BcuslAUmBP9xwM7Xt82V-361" value="" style="endArrow=none;html=1;rounded=0;startArrow=none;startFill=0;targetPerimeterSpacing=0;endFill=0;strokeWidth=1;endSize=6;entryX=0.5;entryY=1;entryDx=0;entryDy=0;exitX=0.5;exitY=0;exitDx=0;exitDy=0;" edge="1" parent="1" source="BcuslAUmBP9xwM7Xt82V-352" target="BcuslAUmBP9xwM7Xt82V-351">
          <mxGeometry width="50" height="50" relative="1" as="geometry">
            <mxPoint x="870.13" y="930" as="sourcePoint" />
            <mxPoint x="800.13" y="840" as="targetPoint" />
            <Array as="points" />
          </mxGeometry>
        </mxCell>
        <mxCell id="BcuslAUmBP9xwM7Xt82V-362" value="auth" style="rounded=0;whiteSpace=wrap;html=1;" vertex="1" parent="1">
          <mxGeometry x="1160" y="1100" width="60" height="30" as="geometry" />
        </mxCell>
        <mxCell id="BcuslAUmBP9xwM7Xt82V-363" value="method" style="rounded=0;whiteSpace=wrap;html=1;" vertex="1" parent="1">
          <mxGeometry x="1090" y="1100" width="60" height="30" as="geometry" />
        </mxCell>
        <mxCell id="BcuslAUmBP9xwM7Xt82V-364" value="url" style="rounded=0;whiteSpace=wrap;html=1;" vertex="1" parent="1">
          <mxGeometry x="1010" y="1100" width="60" height="30" as="geometry" />
        </mxCell>
        <mxCell id="BcuslAUmBP9xwM7Xt82V-365" value="endpoint&lt;div&gt;Struct&lt;/div&gt;" style="rounded=0;whiteSpace=wrap;html=1;" vertex="1" parent="1">
          <mxGeometry x="1050" y="1050" width="60" height="30" as="geometry" />
        </mxCell>
        <mxCell id="BcuslAUmBP9xwM7Xt82V-366" value="api1" style="rounded=0;whiteSpace=wrap;html=1;" vertex="1" parent="1">
          <mxGeometry x="940" y="840" width="60" height="30" as="geometry" />
        </mxCell>
        <mxCell id="BcuslAUmBP9xwM7Xt82V-367" value="..." style="rounded=0;whiteSpace=wrap;html=1;" vertex="1" parent="1">
          <mxGeometry x="1020" y="840" width="60" height="30" as="geometry" />
        </mxCell>
        <mxCell id="BcuslAUmBP9xwM7Xt82V-368" value="" style="endArrow=none;html=1;rounded=0;startArrow=none;startFill=0;targetPerimeterSpacing=0;endFill=0;strokeWidth=1;endSize=6;entryX=0.5;entryY=1;entryDx=0;entryDy=0;exitX=0.5;exitY=0;exitDx=0;exitDy=0;" edge="1" parent="1" source="BcuslAUmBP9xwM7Xt82V-367">
          <mxGeometry width="50" height="50" relative="1" as="geometry">
            <mxPoint x="1080" y="850" as="sourcePoint" />
            <mxPoint x="1010" y="820" as="targetPoint" />
            <Array as="points" />
          </mxGeometry>
        </mxCell>
        <mxCell id="BcuslAUmBP9xwM7Xt82V-369" value="" style="endArrow=none;html=1;rounded=0;startArrow=none;startFill=0;targetPerimeterSpacing=0;endFill=0;strokeWidth=1;endSize=6;curved=1;" edge="1" parent="1">
          <mxGeometry width="50" height="50" relative="1" as="geometry">
            <mxPoint x="1030" y="830" as="sourcePoint" />
            <mxPoint x="990" y="830" as="targetPoint" />
            <Array as="points">
              <mxPoint x="1010" y="840" />
            </Array>
          </mxGeometry>
        </mxCell>
        <mxCell id="BcuslAUmBP9xwM7Xt82V-370" value="" style="endArrow=none;html=1;rounded=0;startArrow=none;startFill=0;targetPerimeterSpacing=0;endFill=0;strokeWidth=1;endSize=6;exitX=0.5;exitY=0;exitDx=0;exitDy=0;" edge="1" parent="1" source="BcuslAUmBP9xwM7Xt82V-366">
          <mxGeometry width="50" height="50" relative="1" as="geometry">
            <mxPoint x="940" y="850" as="sourcePoint" />
            <mxPoint x="1010" y="820" as="targetPoint" />
            <Array as="points" />
          </mxGeometry>
        </mxCell>
        <mxCell id="BcuslAUmBP9xwM7Xt82V-371" value="" style="endArrow=none;html=1;rounded=0;entryX=0.5;entryY=1;entryDx=0;entryDy=0;exitX=0.5;exitY=0;exitDx=0;exitDy=0;" edge="1" parent="1" source="BcuslAUmBP9xwM7Xt82V-382" target="BcuslAUmBP9xwM7Xt82V-366">
          <mxGeometry width="50" height="50" relative="1" as="geometry">
            <mxPoint x="1000" y="900" as="sourcePoint" />
            <mxPoint x="860" y="870" as="targetPoint" />
          </mxGeometry>
        </mxCell>
        <mxCell id="BcuslAUmBP9xwM7Xt82V-372" value="" style="endArrow=none;html=1;rounded=0;entryX=0.5;entryY=1;entryDx=0;entryDy=0;exitX=0.5;exitY=0;exitDx=0;exitDy=0;" edge="1" parent="1" source="BcuslAUmBP9xwM7Xt82V-382" target="BcuslAUmBP9xwM7Xt82V-367">
          <mxGeometry width="50" height="50" relative="1" as="geometry">
            <mxPoint x="1010" y="900" as="sourcePoint" />
            <mxPoint x="860" y="870" as="targetPoint" />
          </mxGeometry>
        </mxCell>
        <mxCell id="BcuslAUmBP9xwM7Xt82V-373" value="" style="endArrow=oval;html=1;rounded=0;startArrow=none;startFill=0;targetPerimeterSpacing=10;endFill=1;strokeWidth=1;endSize=10;exitX=0.5;exitY=1;exitDx=0;exitDy=0;entryX=0.5;entryY=0;entryDx=0;entryDy=0;" edge="1" parent="1" source="BcuslAUmBP9xwM7Xt82V-365" target="BcuslAUmBP9xwM7Xt82V-364">
          <mxGeometry width="50" height="50" relative="1" as="geometry">
            <mxPoint x="950" y="1000" as="sourcePoint" />
            <mxPoint x="950" y="1080" as="targetPoint" />
            <Array as="points" />
          </mxGeometry>
        </mxCell>
        <mxCell id="BcuslAUmBP9xwM7Xt82V-374" value="" style="endArrow=oval;html=1;rounded=0;startArrow=none;startFill=0;targetPerimeterSpacing=10;endFill=1;strokeWidth=1;endSize=10;entryX=0.5;entryY=0;entryDx=0;entryDy=0;exitX=0.5;exitY=1;exitDx=0;exitDy=0;" edge="1" parent="1" source="BcuslAUmBP9xwM7Xt82V-365" target="BcuslAUmBP9xwM7Xt82V-363">
          <mxGeometry width="50" height="50" relative="1" as="geometry">
            <mxPoint x="1150" y="970" as="sourcePoint" />
            <mxPoint x="960" y="1090" as="targetPoint" />
            <Array as="points" />
          </mxGeometry>
        </mxCell>
        <mxCell id="BcuslAUmBP9xwM7Xt82V-375" value="" style="endArrow=oval;html=1;rounded=0;startArrow=none;startFill=0;targetPerimeterSpacing=10;endFill=1;strokeWidth=1;endSize=10;exitX=0.5;exitY=1;exitDx=0;exitDy=0;entryX=0.5;entryY=0;entryDx=0;entryDy=0;" edge="1" parent="1" source="BcuslAUmBP9xwM7Xt82V-365" target="BcuslAUmBP9xwM7Xt82V-362">
          <mxGeometry width="50" height="50" relative="1" as="geometry">
            <mxPoint x="970" y="1020" as="sourcePoint" />
            <mxPoint x="970" y="1100" as="targetPoint" />
            <Array as="points" />
          </mxGeometry>
        </mxCell>
        <mxCell id="BcuslAUmBP9xwM7Xt82V-376" value="" style="endArrow=oval;html=1;rounded=0;startArrow=none;startFill=0;targetPerimeterSpacing=10;endFill=1;strokeWidth=1;endSize=10;exitX=0.5;exitY=1;exitDx=0;exitDy=0;entryX=0.5;entryY=0;entryDx=0;entryDy=0;" edge="1" parent="1" target="BcuslAUmBP9xwM7Xt82V-342">
          <mxGeometry width="50" height="50" relative="1" as="geometry">
            <mxPoint x="940" y="760" as="sourcePoint" />
            <mxPoint x="870" y="780" as="targetPoint" />
            <Array as="points" />
          </mxGeometry>
        </mxCell>
        <mxCell id="BcuslAUmBP9xwM7Xt82V-377" value="" style="endArrow=oval;html=1;rounded=0;startArrow=none;startFill=0;targetPerimeterSpacing=10;endFill=1;strokeWidth=1;endSize=10;entryX=0.5;entryY=0;entryDx=0;entryDy=0;" edge="1" parent="1" target="BcuslAUmBP9xwM7Xt82V-341">
          <mxGeometry width="50" height="50" relative="1" as="geometry">
            <mxPoint x="940" y="760" as="sourcePoint" />
            <mxPoint x="940" y="780" as="targetPoint" />
            <Array as="points" />
          </mxGeometry>
        </mxCell>
        <mxCell id="BcuslAUmBP9xwM7Xt82V-378" value="" style="endArrow=oval;html=1;rounded=0;startArrow=none;startFill=0;targetPerimeterSpacing=10;endFill=1;strokeWidth=1;endSize=10;exitX=0.5;exitY=1;exitDx=0;exitDy=0;entryX=0.5;entryY=0;entryDx=0;entryDy=0;" edge="1" parent="1" target="BcuslAUmBP9xwM7Xt82V-340">
          <mxGeometry width="50" height="50" relative="1" as="geometry">
            <mxPoint x="940" y="760" as="sourcePoint" />
            <mxPoint x="1010" y="780" as="targetPoint" />
            <Array as="points" />
          </mxGeometry>
        </mxCell>
        <mxCell id="BcuslAUmBP9xwM7Xt82V-379" value="func name" style="rounded=0;whiteSpace=wrap;html=1;" vertex="1" parent="1">
          <mxGeometry x="940" y="1100" width="60" height="30" as="geometry" />
        </mxCell>
        <mxCell id="BcuslAUmBP9xwM7Xt82V-380" value="" style="endArrow=oval;html=1;rounded=0;startArrow=none;startFill=0;targetPerimeterSpacing=10;endFill=1;strokeWidth=1;endSize=10;exitX=0.5;exitY=1;exitDx=0;exitDy=0;entryX=0.5;entryY=0;entryDx=0;entryDy=0;" edge="1" parent="1" source="BcuslAUmBP9xwM7Xt82V-365" target="BcuslAUmBP9xwM7Xt82V-379">
          <mxGeometry width="50" height="50" relative="1" as="geometry">
            <mxPoint x="889.5" y="980" as="sourcePoint" />
            <mxPoint x="889.5" y="1060" as="targetPoint" />
            <Array as="points" />
          </mxGeometry>
        </mxCell>
        <mxCell id="BcuslAUmBP9xwM7Xt82V-381" value="components" style="rounded=0;whiteSpace=wrap;html=1;" vertex="1" parent="1">
          <mxGeometry x="1360" y="720" width="80" height="30" as="geometry" />
        </mxCell>
        <mxCell id="BcuslAUmBP9xwM7Xt82V-382" value="api&lt;div&gt;Struct&lt;/div&gt;" style="rounded=0;whiteSpace=wrap;html=1;" vertex="1" parent="1">
          <mxGeometry x="980" y="890" width="60" height="30" as="geometry" />
        </mxCell>
        <mxCell id="BcuslAUmBP9xwM7Xt82V-383" value="endpoints" style="rounded=0;whiteSpace=wrap;html=1;" vertex="1" parent="1">
          <mxGeometry x="1050" y="940" width="60" height="30" as="geometry" />
        </mxCell>
        <mxCell id="BcuslAUmBP9xwM7Xt82V-384" value="route" style="rounded=0;whiteSpace=wrap;html=1;" vertex="1" parent="1">
          <mxGeometry x="980" y="940" width="60" height="30" as="geometry" />
        </mxCell>
        <mxCell id="BcuslAUmBP9xwM7Xt82V-385" value="name" style="rounded=0;whiteSpace=wrap;html=1;" vertex="1" parent="1">
          <mxGeometry x="910" y="940" width="60" height="30" as="geometry" />
        </mxCell>
        <mxCell id="BcuslAUmBP9xwM7Xt82V-386" value="" style="endArrow=oval;html=1;rounded=0;startArrow=none;startFill=0;targetPerimeterSpacing=10;endFill=1;strokeWidth=1;endSize=10;exitX=0.5;exitY=1;exitDx=0;exitDy=0;entryX=0.5;entryY=0;entryDx=0;entryDy=0;" edge="1" parent="1" source="BcuslAUmBP9xwM7Xt82V-382" target="BcuslAUmBP9xwM7Xt82V-385">
          <mxGeometry width="50" height="50" relative="1" as="geometry">
            <mxPoint x="900" y="890" as="sourcePoint" />
            <mxPoint x="830" y="920" as="targetPoint" />
            <Array as="points" />
          </mxGeometry>
        </mxCell>
        <mxCell id="BcuslAUmBP9xwM7Xt82V-387" value="" style="endArrow=oval;html=1;rounded=0;startArrow=none;startFill=0;targetPerimeterSpacing=10;endFill=1;strokeWidth=1;endSize=10;exitX=0.5;exitY=1;exitDx=0;exitDy=0;entryX=0.5;entryY=0;entryDx=0;entryDy=0;" edge="1" parent="1" source="BcuslAUmBP9xwM7Xt82V-382" target="BcuslAUmBP9xwM7Xt82V-384">
          <mxGeometry width="50" height="50" relative="1" as="geometry">
            <mxPoint x="1190" y="880" as="sourcePoint" />
            <mxPoint x="1120" y="910" as="targetPoint" />
            <Array as="points" />
          </mxGeometry>
        </mxCell>
        <mxCell id="BcuslAUmBP9xwM7Xt82V-388" value="" style="endArrow=oval;html=1;rounded=0;startArrow=none;startFill=0;targetPerimeterSpacing=10;endFill=1;strokeWidth=1;endSize=10;exitX=0.5;exitY=1;exitDx=0;exitDy=0;entryX=0.5;entryY=0;entryDx=0;entryDy=0;" edge="1" parent="1" source="BcuslAUmBP9xwM7Xt82V-382" target="BcuslAUmBP9xwM7Xt82V-383">
          <mxGeometry width="50" height="50" relative="1" as="geometry">
            <mxPoint x="1200" y="890" as="sourcePoint" />
            <mxPoint x="1130" y="920" as="targetPoint" />
            <Array as="points" />
          </mxGeometry>
        </mxCell>
        <mxCell id="BcuslAUmBP9xwM7Xt82V-389" value="route1" style="rounded=0;whiteSpace=wrap;html=1;" vertex="1" parent="1">
          <mxGeometry x="979.75" y="1000" width="60" height="30" as="geometry" />
        </mxCell>
        <mxCell id="BcuslAUmBP9xwM7Xt82V-390" value="route2" style="rounded=0;whiteSpace=wrap;html=1;" vertex="1" parent="1">
          <mxGeometry x="1050" y="1000" width="60" height="30" as="geometry" />
        </mxCell>
        <mxCell id="BcuslAUmBP9xwM7Xt82V-391" value="..." style="rounded=0;whiteSpace=wrap;html=1;" vertex="1" parent="1">
          <mxGeometry x="1120" y="1000" width="60" height="30" as="geometry" />
        </mxCell>
        <mxCell id="BcuslAUmBP9xwM7Xt82V-392" value="" style="endArrow=none;html=1;rounded=0;entryX=0.5;entryY=1;entryDx=0;entryDy=0;exitX=0.5;exitY=0;exitDx=0;exitDy=0;" edge="1" parent="1" target="BcuslAUmBP9xwM7Xt82V-389">
          <mxGeometry width="50" height="50" relative="1" as="geometry">
            <mxPoint x="1079.75" y="1050" as="sourcePoint" />
            <mxPoint x="1140" y="1090" as="targetPoint" />
          </mxGeometry>
        </mxCell>
        <mxCell id="BcuslAUmBP9xwM7Xt82V-393" value="" style="endArrow=none;html=1;rounded=0;entryX=0.5;entryY=1;entryDx=0;entryDy=0;exitX=0.5;exitY=0;exitDx=0;exitDy=0;" edge="1" parent="1" target="BcuslAUmBP9xwM7Xt82V-390">
          <mxGeometry width="50" height="50" relative="1" as="geometry">
            <mxPoint x="1079.75" y="1050" as="sourcePoint" />
            <mxPoint x="1140" y="1090" as="targetPoint" />
          </mxGeometry>
        </mxCell>
        <mxCell id="BcuslAUmBP9xwM7Xt82V-394" value="" style="endArrow=none;html=1;rounded=0;entryX=0.5;entryY=1;entryDx=0;entryDy=0;exitX=0.5;exitY=0;exitDx=0;exitDy=0;" edge="1" parent="1" target="BcuslAUmBP9xwM7Xt82V-391">
          <mxGeometry width="50" height="50" relative="1" as="geometry">
            <mxPoint x="1079.75" y="1050" as="sourcePoint" />
            <mxPoint x="1140" y="1090" as="targetPoint" />
          </mxGeometry>
        </mxCell>
        <mxCell id="BcuslAUmBP9xwM7Xt82V-395" value="" style="endArrow=none;html=1;rounded=0;startArrow=none;startFill=0;targetPerimeterSpacing=0;endFill=0;strokeWidth=1;endSize=6;exitX=0.5;exitY=0;exitDx=0;exitDy=0;" edge="1" parent="1" source="BcuslAUmBP9xwM7Xt82V-390">
          <mxGeometry width="50" height="50" relative="1" as="geometry">
            <mxPoint x="1199.88" y="1130" as="sourcePoint" />
            <mxPoint x="1079.88" y="970" as="targetPoint" />
            <Array as="points" />
          </mxGeometry>
        </mxCell>
        <mxCell id="BcuslAUmBP9xwM7Xt82V-396" value="" style="endArrow=none;html=1;rounded=0;startArrow=none;startFill=0;targetPerimeterSpacing=0;endFill=0;strokeWidth=1;endSize=6;entryX=0.5;entryY=1;entryDx=0;entryDy=0;exitX=0.5;exitY=0;exitDx=0;exitDy=0;" edge="1" parent="1" source="BcuslAUmBP9xwM7Xt82V-391">
          <mxGeometry width="50" height="50" relative="1" as="geometry">
            <mxPoint x="1319.88" y="1095" as="sourcePoint" />
            <mxPoint x="1079.75" y="970" as="targetPoint" />
            <Array as="points" />
          </mxGeometry>
        </mxCell>
        <mxCell id="BcuslAUmBP9xwM7Xt82V-397" value="" style="endArrow=none;html=1;rounded=0;startArrow=none;startFill=0;targetPerimeterSpacing=0;endFill=0;strokeWidth=1;endSize=6;curved=1;" edge="1" parent="1">
          <mxGeometry width="50" height="50" relative="1" as="geometry">
            <mxPoint x="1119.88" y="980" as="sourcePoint" />
            <mxPoint x="1039.88" y="980" as="targetPoint" />
            <Array as="points">
              <mxPoint x="1079.88" y="1000" />
            </Array>
          </mxGeometry>
        </mxCell>
        <mxCell id="BcuslAUmBP9xwM7Xt82V-398" value="" style="endArrow=none;html=1;rounded=0;startArrow=none;startFill=0;targetPerimeterSpacing=0;endFill=0;strokeWidth=1;endSize=6;entryX=0.5;entryY=1;entryDx=0;entryDy=0;exitX=0.5;exitY=0;exitDx=0;exitDy=0;" edge="1" parent="1" source="BcuslAUmBP9xwM7Xt82V-389">
          <mxGeometry width="50" height="50" relative="1" as="geometry">
            <mxPoint x="1229.88" y="1140" as="sourcePoint" />
            <mxPoint x="1079.75" y="970" as="targetPoint" />
            <Array as="points" />
          </mxGeometry>
        </mxCell>
        <mxCell id="BcuslAUmBP9xwM7Xt82V-399" value="background" style="rounded=0;whiteSpace=wrap;html=1;" vertex="1" parent="1">
          <mxGeometry x="1790" y="860" width="70" height="30" as="geometry" />
        </mxCell>
        <mxCell id="BcuslAUmBP9xwM7Xt82V-400" value="shownAttributes" style="rounded=0;whiteSpace=wrap;html=1;" vertex="1" parent="1">
          <mxGeometry x="1566.5" y="830" width="100" height="30" as="geometry" />
        </mxCell>
        <mxCell id="BcuslAUmBP9xwM7Xt82V-401" value="defaultCols" style="rounded=0;whiteSpace=wrap;html=1;" vertex="1" parent="1">
          <mxGeometry x="1380" y="830" width="80" height="30" as="geometry" />
        </mxCell>
        <mxCell id="BcuslAUmBP9xwM7Xt82V-402" value="defaultRows" style="rounded=0;whiteSpace=wrap;html=1;" vertex="1" parent="1">
          <mxGeometry x="1472.5" y="830" width="80" height="30" as="geometry" />
        </mxCell>
        <mxCell id="BcuslAUmBP9xwM7Xt82V-403" value="SongsView" style="rounded=0;whiteSpace=wrap;html=1;" vertex="1" parent="1">
          <mxGeometry x="1477.5" y="780" width="70" height="30" as="geometry" />
        </mxCell>
        <mxCell id="BcuslAUmBP9xwM7Xt82V-404" value="filtersBasePath" style="rounded=0;whiteSpace=wrap;html=1;" vertex="1" parent="1">
          <mxGeometry x="1190" y="830" width="100" height="30" as="geometry" />
        </mxCell>
        <mxCell id="BcuslAUmBP9xwM7Xt82V-405" value="filterSidebar" style="rounded=0;whiteSpace=wrap;html=1;" vertex="1" parent="1">
          <mxGeometry x="1250" y="780" width="80" height="30" as="geometry" />
        </mxCell>
        <mxCell id="BcuslAUmBP9xwM7Xt82V-406" value="filters" style="rounded=0;whiteSpace=wrap;html=1;" vertex="1" parent="1">
          <mxGeometry x="1300" y="830" width="60" height="30" as="geometry" />
        </mxCell>
        <mxCell id="BcuslAUmBP9xwM7Xt82V-407" value="" style="endArrow=oval;html=1;rounded=0;startArrow=none;startFill=0;targetPerimeterSpacing=10;endFill=1;strokeWidth=1;endSize=10;exitX=0.5;exitY=1;exitDx=0;exitDy=0;entryX=0.5;entryY=0;entryDx=0;entryDy=0;" edge="1" parent="1" source="BcuslAUmBP9xwM7Xt82V-405" target="BcuslAUmBP9xwM7Xt82V-406">
          <mxGeometry width="50" height="50" relative="1" as="geometry">
            <mxPoint x="1396" y="790" as="sourcePoint" />
            <mxPoint x="1396" y="870" as="targetPoint" />
            <Array as="points" />
          </mxGeometry>
        </mxCell>
        <mxCell id="BcuslAUmBP9xwM7Xt82V-408" value="" style="endArrow=oval;html=1;rounded=0;startArrow=none;startFill=0;targetPerimeterSpacing=10;endFill=0;strokeWidth=1;endSize=10;exitX=0.5;exitY=1;exitDx=0;exitDy=0;entryX=0.5;entryY=0;entryDx=0;entryDy=0;" edge="1" parent="1" source="BcuslAUmBP9xwM7Xt82V-405" target="BcuslAUmBP9xwM7Xt82V-404">
          <mxGeometry width="50" height="50" relative="1" as="geometry">
            <mxPoint x="1390" y="597.37" as="sourcePoint" />
            <mxPoint x="1390" y="677.37" as="targetPoint" />
            <Array as="points" />
          </mxGeometry>
        </mxCell>
        <mxCell id="BcuslAUmBP9xwM7Xt82V-409" value="Title" style="rounded=0;whiteSpace=wrap;html=1;" vertex="1" parent="1">
          <mxGeometry x="1370" y="890" width="60" height="30" as="geometry" />
        </mxCell>
        <mxCell id="BcuslAUmBP9xwM7Xt82V-410" value="Artist" style="rounded=0;whiteSpace=wrap;html=1;" vertex="1" parent="1">
          <mxGeometry x="1300" y="890" width="60" height="30" as="geometry" />
        </mxCell>
        <mxCell id="BcuslAUmBP9xwM7Xt82V-411" value="preset" style="rounded=0;whiteSpace=wrap;html=1;" vertex="1" parent="1">
          <mxGeometry x="1770" y="760" width="60" height="30" as="geometry" />
        </mxCell>
        <mxCell id="BcuslAUmBP9xwM7Xt82V-412" value="Disc&lt;div&gt;Number&lt;/div&gt;" style="rounded=0;whiteSpace=wrap;html=1;" vertex="1" parent="1">
          <mxGeometry x="1656.5" y="1010" width="60" height="30" as="geometry" />
        </mxCell>
        <mxCell id="BcuslAUmBP9xwM7Xt82V-413" value="Track&lt;div&gt;Number&lt;/div&gt;" style="rounded=0;whiteSpace=wrap;html=1;" vertex="1" parent="1">
          <mxGeometry x="1586.5" y="1010" width="60" height="30" as="geometry" />
        </mxCell>
        <mxCell id="BcuslAUmBP9xwM7Xt82V-414" value="Format" style="rounded=0;whiteSpace=wrap;html=1;" vertex="1" parent="1">
          <mxGeometry x="1656.5" y="970" width="60" height="30" as="geometry" />
        </mxCell>
        <mxCell id="BcuslAUmBP9xwM7Xt82V-415" value="" style="endArrow=none;html=1;rounded=0;startArrow=none;startFill=0;targetPerimeterSpacing=0;endFill=0;strokeWidth=1;endSize=6;exitX=0.5;exitY=0;exitDx=0;exitDy=0;" edge="1" parent="1">
          <mxGeometry width="50" height="50" relative="1" as="geometry">
            <mxPoint x="1330" y="890" as="sourcePoint" />
            <mxPoint x="1329.88" y="860" as="targetPoint" />
            <Array as="points" />
          </mxGeometry>
        </mxCell>
        <mxCell id="BcuslAUmBP9xwM7Xt82V-416" value="" style="endArrow=none;html=1;rounded=0;startArrow=none;startFill=0;targetPerimeterSpacing=0;endFill=0;strokeWidth=1;endSize=6;entryX=0.5;entryY=1;entryDx=0;entryDy=0;exitX=0.5;exitY=0;exitDx=0;exitDy=0;" edge="1" parent="1">
          <mxGeometry width="50" height="50" relative="1" as="geometry">
            <mxPoint x="1400" y="890" as="sourcePoint" />
            <mxPoint x="1329.75" y="860" as="targetPoint" />
            <Array as="points" />
          </mxGeometry>
        </mxCell>
        <mxCell id="BcuslAUmBP9xwM7Xt82V-417" value="" style="endArrow=none;html=1;rounded=0;startArrow=none;startFill=0;targetPerimeterSpacing=0;endFill=0;strokeWidth=1;endSize=6;curved=1;" edge="1" parent="1">
          <mxGeometry width="50" height="50" relative="1" as="geometry">
            <mxPoint x="1369.88" y="870" as="sourcePoint" />
            <mxPoint x="1289.88" y="870" as="targetPoint" />
            <Array as="points">
              <mxPoint x="1329.88" y="890" />
            </Array>
          </mxGeometry>
        </mxCell>
        <mxCell id="BcuslAUmBP9xwM7Xt82V-418" value="" style="endArrow=none;html=1;rounded=0;startArrow=none;startFill=0;targetPerimeterSpacing=0;endFill=0;strokeWidth=1;endSize=6;entryX=0.5;entryY=1;entryDx=0;entryDy=0;exitX=0.5;exitY=0;exitDx=0;exitDy=0;" edge="1" parent="1">
          <mxGeometry width="50" height="50" relative="1" as="geometry">
            <mxPoint x="1260" y="890" as="sourcePoint" />
            <mxPoint x="1329.75" y="860" as="targetPoint" />
            <Array as="points" />
          </mxGeometry>
        </mxCell>
        <mxCell id="BcuslAUmBP9xwM7Xt82V-419" value="Album" style="rounded=0;whiteSpace=wrap;html=1;" vertex="1" parent="1">
          <mxGeometry x="1230" y="890" width="60" height="30" as="geometry" />
        </mxCell>
        <mxCell id="BcuslAUmBP9xwM7Xt82V-420" value="Year" style="rounded=0;whiteSpace=wrap;html=1;" vertex="1" parent="1">
          <mxGeometry x="1300" y="930" width="60" height="30" as="geometry" />
        </mxCell>
        <mxCell id="BcuslAUmBP9xwM7Xt82V-421" value="Genre" style="rounded=0;whiteSpace=wrap;html=1;" vertex="1" parent="1">
          <mxGeometry x="1230" y="930" width="60" height="30" as="geometry" />
        </mxCell>
        <mxCell id="BcuslAUmBP9xwM7Xt82V-422" value="Bitrate" style="rounded=0;whiteSpace=wrap;html=1;" vertex="1" parent="1">
          <mxGeometry x="1340" y="970" width="60" height="30" as="geometry" />
        </mxCell>
        <mxCell id="BcuslAUmBP9xwM7Xt82V-423" value="Format" style="rounded=0;whiteSpace=wrap;html=1;" vertex="1" parent="1">
          <mxGeometry x="1260" y="970" width="60" height="30" as="geometry" />
        </mxCell>
        <mxCell id="BcuslAUmBP9xwM7Xt82V-424" value="Duration" style="rounded=0;whiteSpace=wrap;html=1;" vertex="1" parent="1">
          <mxGeometry x="1370" y="930" width="60" height="30" as="geometry" />
        </mxCell>
        <mxCell id="BcuslAUmBP9xwM7Xt82V-425" value="" style="endArrow=none;html=1;rounded=0;exitX=0.5;exitY=0;exitDx=0;exitDy=0;" edge="1" parent="1" source="BcuslAUmBP9xwM7Xt82V-440">
          <mxGeometry width="50" height="50" relative="1" as="geometry">
            <mxPoint x="1546.5" y="980" as="sourcePoint" />
            <mxPoint x="1616.5" y="860" as="targetPoint" />
          </mxGeometry>
        </mxCell>
        <mxCell id="BcuslAUmBP9xwM7Xt82V-426" value="" style="endArrow=none;html=1;rounded=0;exitX=0.5;exitY=0;exitDx=0;exitDy=0;" edge="1" parent="1" source="BcuslAUmBP9xwM7Xt82V-439">
          <mxGeometry width="50" height="50" relative="1" as="geometry">
            <mxPoint x="1546.5" y="980" as="sourcePoint" />
            <mxPoint x="1616.5" y="860" as="targetPoint" />
          </mxGeometry>
        </mxCell>
        <mxCell id="BcuslAUmBP9xwM7Xt82V-427" value="" style="endArrow=none;html=1;rounded=0;startArrow=none;startFill=0;targetPerimeterSpacing=0;endFill=0;strokeWidth=1;endSize=6;exitX=0.5;exitY=0;exitDx=0;exitDy=0;" edge="1" parent="1" source="BcuslAUmBP9xwM7Xt82V-437">
          <mxGeometry width="50" height="50" relative="1" as="geometry">
            <mxPoint x="1636.5" y="1070" as="sourcePoint" />
            <mxPoint x="1616.5" y="860" as="targetPoint" />
            <Array as="points" />
          </mxGeometry>
        </mxCell>
        <mxCell id="BcuslAUmBP9xwM7Xt82V-428" value="" style="endArrow=none;html=1;rounded=0;startArrow=none;startFill=0;targetPerimeterSpacing=0;endFill=0;strokeWidth=1;endSize=6;exitX=0.5;exitY=0;exitDx=0;exitDy=0;" edge="1" parent="1" source="BcuslAUmBP9xwM7Xt82V-441">
          <mxGeometry width="50" height="50" relative="1" as="geometry">
            <mxPoint x="1706.5" y="1070" as="sourcePoint" />
            <mxPoint x="1616.5" y="860" as="targetPoint" />
            <Array as="points" />
          </mxGeometry>
        </mxCell>
        <mxCell id="BcuslAUmBP9xwM7Xt82V-429" value="" style="endArrow=none;html=1;rounded=0;startArrow=none;startFill=0;targetPerimeterSpacing=0;endFill=0;strokeWidth=1;endSize=6;exitX=0.5;exitY=0;exitDx=0;exitDy=0;" edge="1" parent="1" source="BcuslAUmBP9xwM7Xt82V-438">
          <mxGeometry width="50" height="50" relative="1" as="geometry">
            <mxPoint x="1533.5" y="1075" as="sourcePoint" />
            <mxPoint x="1616.5" y="860" as="targetPoint" />
            <Array as="points" />
          </mxGeometry>
        </mxCell>
        <mxCell id="BcuslAUmBP9xwM7Xt82V-430" value="Title" style="rounded=0;whiteSpace=wrap;html=1;" vertex="1" parent="1">
          <mxGeometry x="1656.5" y="890" width="60" height="30" as="geometry" />
        </mxCell>
        <mxCell id="BcuslAUmBP9xwM7Xt82V-431" value="Artist" style="rounded=0;whiteSpace=wrap;html=1;" vertex="1" parent="1">
          <mxGeometry x="1586.5" y="890" width="60" height="30" as="geometry" />
        </mxCell>
        <mxCell id="BcuslAUmBP9xwM7Xt82V-432" value="" style="endArrow=none;html=1;rounded=0;startArrow=none;startFill=0;targetPerimeterSpacing=0;endFill=0;strokeWidth=1;endSize=6;exitX=0.5;exitY=0;exitDx=0;exitDy=0;" edge="1" parent="1">
          <mxGeometry width="50" height="50" relative="1" as="geometry">
            <mxPoint x="1616.5" y="890" as="sourcePoint" />
            <mxPoint x="1616.38" y="860" as="targetPoint" />
            <Array as="points" />
          </mxGeometry>
        </mxCell>
        <mxCell id="BcuslAUmBP9xwM7Xt82V-433" value="" style="endArrow=none;html=1;rounded=0;startArrow=none;startFill=0;targetPerimeterSpacing=0;endFill=0;strokeWidth=1;endSize=6;entryX=0.5;entryY=1;entryDx=0;entryDy=0;exitX=0.5;exitY=0;exitDx=0;exitDy=0;" edge="1" parent="1">
          <mxGeometry width="50" height="50" relative="1" as="geometry">
            <mxPoint x="1686.5" y="890" as="sourcePoint" />
            <mxPoint x="1616.25" y="860" as="targetPoint" />
            <Array as="points" />
          </mxGeometry>
        </mxCell>
        <mxCell id="BcuslAUmBP9xwM7Xt82V-434" value="" style="endArrow=none;html=1;rounded=0;startArrow=none;startFill=0;targetPerimeterSpacing=0;endFill=0;strokeWidth=1;endSize=6;curved=1;" edge="1" parent="1">
          <mxGeometry width="50" height="50" relative="1" as="geometry">
            <mxPoint x="1656.38" y="870" as="sourcePoint" />
            <mxPoint x="1576.38" y="870" as="targetPoint" />
            <Array as="points">
              <mxPoint x="1616.38" y="890" />
            </Array>
          </mxGeometry>
        </mxCell>
        <mxCell id="BcuslAUmBP9xwM7Xt82V-435" value="" style="endArrow=none;html=1;rounded=0;startArrow=none;startFill=0;targetPerimeterSpacing=0;endFill=0;strokeWidth=1;endSize=6;entryX=0.5;entryY=1;entryDx=0;entryDy=0;exitX=0.5;exitY=0;exitDx=0;exitDy=0;" edge="1" parent="1">
          <mxGeometry width="50" height="50" relative="1" as="geometry">
            <mxPoint x="1546.5" y="890" as="sourcePoint" />
            <mxPoint x="1616.25" y="860" as="targetPoint" />
            <Array as="points" />
          </mxGeometry>
        </mxCell>
        <mxCell id="BcuslAUmBP9xwM7Xt82V-436" value="Album" style="rounded=0;whiteSpace=wrap;html=1;" vertex="1" parent="1">
          <mxGeometry x="1516.5" y="890" width="60" height="30" as="geometry" />
        </mxCell>
        <mxCell id="BcuslAUmBP9xwM7Xt82V-437" value="Year" style="rounded=0;whiteSpace=wrap;html=1;" vertex="1" parent="1">
          <mxGeometry x="1586.5" y="930" width="60" height="30" as="geometry" />
        </mxCell>
        <mxCell id="BcuslAUmBP9xwM7Xt82V-438" value="Genre" style="rounded=0;whiteSpace=wrap;html=1;" vertex="1" parent="1">
          <mxGeometry x="1516.5" y="930" width="60" height="30" as="geometry" />
        </mxCell>
        <mxCell id="BcuslAUmBP9xwM7Xt82V-439" value="Bitrate" style="rounded=0;whiteSpace=wrap;html=1;" vertex="1" parent="1">
          <mxGeometry x="1586.5" y="970" width="60" height="30" as="geometry" />
        </mxCell>
        <mxCell id="BcuslAUmBP9xwM7Xt82V-440" value="Format" style="rounded=0;whiteSpace=wrap;html=1;" vertex="1" parent="1">
          <mxGeometry x="1516.5" y="970" width="60" height="30" as="geometry" />
        </mxCell>
        <mxCell id="BcuslAUmBP9xwM7Xt82V-441" value="Duration" style="rounded=0;whiteSpace=wrap;html=1;" vertex="1" parent="1">
          <mxGeometry x="1656.5" y="930" width="60" height="30" as="geometry" />
        </mxCell>
        <mxCell id="BcuslAUmBP9xwM7Xt82V-442" value="Album&lt;div&gt;Artist&lt;/div&gt;" style="rounded=0;whiteSpace=wrap;html=1;" vertex="1" parent="1">
          <mxGeometry x="1516.5" y="1010" width="60" height="30" as="geometry" />
        </mxCell>
        <mxCell id="BcuslAUmBP9xwM7Xt82V-443" value="" style="endArrow=oval;html=1;rounded=0;startArrow=none;startFill=0;targetPerimeterSpacing=10;endFill=1;strokeWidth=1;endSize=10;exitX=0.5;exitY=1;exitDx=0;exitDy=0;entryX=0.5;entryY=0;entryDx=0;entryDy=0;" edge="1" parent="1" source="BcuslAUmBP9xwM7Xt82V-403" target="BcuslAUmBP9xwM7Xt82V-400">
          <mxGeometry width="50" height="50" relative="1" as="geometry">
            <mxPoint x="1655.67" y="730" as="sourcePoint" />
            <mxPoint x="1655.67" y="810" as="targetPoint" />
            <Array as="points" />
          </mxGeometry>
        </mxCell>
        <mxCell id="BcuslAUmBP9xwM7Xt82V-444" value="" style="endArrow=oval;html=1;rounded=0;startArrow=none;startFill=0;targetPerimeterSpacing=10;endFill=0;strokeWidth=1;endSize=10;exitX=0.5;exitY=1;exitDx=0;exitDy=0;entryX=0.5;entryY=0;entryDx=0;entryDy=0;" edge="1" parent="1" source="BcuslAUmBP9xwM7Xt82V-403" target="BcuslAUmBP9xwM7Xt82V-401">
          <mxGeometry width="50" height="50" relative="1" as="geometry">
            <mxPoint x="1276.5" y="647.37" as="sourcePoint" />
            <mxPoint x="1276.5" y="727.37" as="targetPoint" />
            <Array as="points" />
          </mxGeometry>
        </mxCell>
        <mxCell id="BcuslAUmBP9xwM7Xt82V-445" value="" style="endArrow=oval;html=1;rounded=0;startArrow=none;startFill=0;targetPerimeterSpacing=10;endFill=0;strokeWidth=1;endSize=10;exitX=0.5;exitY=1;exitDx=0;exitDy=0;entryX=0.5;entryY=0;entryDx=0;entryDy=0;" edge="1" parent="1" source="BcuslAUmBP9xwM7Xt82V-403" target="BcuslAUmBP9xwM7Xt82V-402">
          <mxGeometry width="50" height="50" relative="1" as="geometry">
            <mxPoint x="1286.5" y="657.37" as="sourcePoint" />
            <mxPoint x="1286.5" y="737.37" as="targetPoint" />
            <Array as="points" />
          </mxGeometry>
        </mxCell>
        <mxCell id="BcuslAUmBP9xwM7Xt82V-446" value="" style="endArrow=oval;html=1;rounded=0;startArrow=none;startFill=0;targetPerimeterSpacing=10;endFill=1;strokeWidth=1;endSize=10;exitX=0.5;exitY=1;exitDx=0;exitDy=0;entryX=0.5;entryY=0;entryDx=0;entryDy=0;" edge="1" parent="1" source="BcuslAUmBP9xwM7Xt82V-381" target="BcuslAUmBP9xwM7Xt82V-403">
          <mxGeometry width="50" height="50" relative="1" as="geometry">
            <mxPoint x="1300" y="597.37" as="sourcePoint" />
            <mxPoint x="1300" y="677.37" as="targetPoint" />
            <Array as="points" />
          </mxGeometry>
        </mxCell>
        <mxCell id="BcuslAUmBP9xwM7Xt82V-447" value="" style="endArrow=oval;html=1;rounded=0;startArrow=none;startFill=0;targetPerimeterSpacing=10;endFill=1;strokeWidth=1;endSize=10;exitX=0.5;exitY=1;exitDx=0;exitDy=0;entryX=0.5;entryY=0;entryDx=0;entryDy=0;" edge="1" parent="1" source="BcuslAUmBP9xwM7Xt82V-381" target="BcuslAUmBP9xwM7Xt82V-405">
          <mxGeometry width="50" height="50" relative="1" as="geometry">
            <mxPoint x="1310" y="607.37" as="sourcePoint" />
            <mxPoint x="1310" y="687.37" as="targetPoint" />
            <Array as="points" />
          </mxGeometry>
        </mxCell>
        <mxCell id="BcuslAUmBP9xwM7Xt82V-448" value="" style="endArrow=oval;html=1;rounded=0;startArrow=none;startFill=0;targetPerimeterSpacing=10;endFill=0;strokeWidth=1;endSize=10;exitX=0.5;exitY=1;exitDx=0;exitDy=0;entryX=0.5;entryY=0;entryDx=0;entryDy=0;" edge="1" parent="1" source="BcuslAUmBP9xwM7Xt82V-337" target="BcuslAUmBP9xwM7Xt82V-411">
          <mxGeometry width="50" height="50" relative="1" as="geometry">
            <mxPoint x="1340" y="597.37" as="sourcePoint" />
            <mxPoint x="1340" y="677.37" as="targetPoint" />
            <Array as="points" />
          </mxGeometry>
        </mxCell>
        <mxCell id="BcuslAUmBP9xwM7Xt82V-449" value="secondary" style="rounded=0;whiteSpace=wrap;html=1;" vertex="1" parent="1">
          <mxGeometry x="1880" y="820" width="60" height="30" as="geometry" />
        </mxCell>
        <mxCell id="BcuslAUmBP9xwM7Xt82V-450" value="background&lt;div&gt;Secondary&lt;/div&gt;&lt;div&gt;Paper&lt;/div&gt;" style="rounded=0;whiteSpace=wrap;html=1;" vertex="1" parent="1">
          <mxGeometry x="1880" y="904.75" width="70" height="45.25" as="geometry" />
        </mxCell>
        <mxCell id="BcuslAUmBP9xwM7Xt82V-451" value="primary" style="rounded=0;whiteSpace=wrap;html=1;" vertex="1" parent="1">
          <mxGeometry x="1800" y="820" width="60" height="30" as="geometry" />
        </mxCell>
        <mxCell id="BcuslAUmBP9xwM7Xt82V-452" value="background&lt;div&gt;Secondary&lt;/div&gt;" style="rounded=0;whiteSpace=wrap;html=1;" vertex="1" parent="1">
          <mxGeometry x="1790" y="904.75" width="70" height="30" as="geometry" />
        </mxCell>
        <mxCell id="BcuslAUmBP9xwM7Xt82V-453" value="header" style="rounded=0;whiteSpace=wrap;html=1;" vertex="1" parent="1">
          <mxGeometry x="1970" y="820" width="60" height="30" as="geometry" />
        </mxCell>
        <mxCell id="BcuslAUmBP9xwM7Xt82V-454" value="plette" style="rounded=0;whiteSpace=wrap;html=1;" vertex="1" parent="1">
          <mxGeometry x="1840" y="760" width="60" height="30" as="geometry" />
        </mxCell>
        <mxCell id="BcuslAUmBP9xwM7Xt82V-455" value="background&lt;div&gt;paper&lt;/div&gt;" style="rounded=0;whiteSpace=wrap;html=1;" vertex="1" parent="1">
          <mxGeometry x="1880" y="860" width="70" height="30" as="geometry" />
        </mxCell>
        <mxCell id="BcuslAUmBP9xwM7Xt82V-456" value="components" style="rounded=0;whiteSpace=wrap;html=1;" vertex="1" parent="1">
          <mxGeometry x="2109.5" y="760" width="80" height="30" as="geometry" />
        </mxCell>
        <mxCell id="BcuslAUmBP9xwM7Xt82V-457" value="" style="endArrow=none;html=1;rounded=0;startArrow=none;startFill=0;targetPerimeterSpacing=0;endFill=0;strokeWidth=1;endSize=6;curved=1;" edge="1" parent="1">
          <mxGeometry width="50" height="50" relative="1" as="geometry">
            <mxPoint x="1890" y="800" as="sourcePoint" />
            <mxPoint x="1850" y="800" as="targetPoint" />
            <Array as="points">
              <mxPoint x="1870" y="810" />
            </Array>
          </mxGeometry>
        </mxCell>
        <mxCell id="BcuslAUmBP9xwM7Xt82V-458" value="" style="endArrow=oval;html=1;rounded=0;startArrow=none;startFill=0;targetPerimeterSpacing=10;endFill=0;strokeWidth=1;endSize=10;exitX=0.5;exitY=1;exitDx=0;exitDy=0;entryX=0.5;entryY=0;entryDx=0;entryDy=0;" edge="1" parent="1" source="BcuslAUmBP9xwM7Xt82V-337" target="BcuslAUmBP9xwM7Xt82V-454">
          <mxGeometry width="50" height="50" relative="1" as="geometry">
            <mxPoint x="1340" y="597.37" as="sourcePoint" />
            <mxPoint x="1340" y="677.37" as="targetPoint" />
            <Array as="points" />
          </mxGeometry>
        </mxCell>
        <mxCell id="BcuslAUmBP9xwM7Xt82V-459" value="DEFAULT" style="rounded=0;whiteSpace=wrap;html=1;" vertex="1" parent="1">
          <mxGeometry x="1970" y="1010" width="60" height="30" as="geometry" />
        </mxCell>
        <mxCell id="BcuslAUmBP9xwM7Xt82V-460" value="MINIMAL" style="rounded=0;whiteSpace=wrap;html=1;" vertex="1" parent="1">
          <mxGeometry x="2040" y="1010" width="60" height="30" as="geometry" />
        </mxCell>
        <mxCell id="BcuslAUmBP9xwM7Xt82V-461" value="variant" style="rounded=0;whiteSpace=wrap;html=1;" vertex="1" parent="1">
          <mxGeometry x="2040" y="950" width="60" height="30" as="geometry" />
        </mxCell>
        <mxCell id="BcuslAUmBP9xwM7Xt82V-462" value="MODERN" style="rounded=0;whiteSpace=wrap;html=1;" vertex="1" parent="1">
          <mxGeometry x="2110" y="1010" width="60" height="30" as="geometry" />
        </mxCell>
        <mxCell id="BcuslAUmBP9xwM7Xt82V-463" value="" style="endArrow=none;html=1;rounded=0;startArrow=none;startFill=0;targetPerimeterSpacing=0;endFill=0;strokeWidth=1;endSize=6;exitX=0.5;exitY=0;exitDx=0;exitDy=0;" edge="1" parent="1">
          <mxGeometry width="50" height="50" relative="1" as="geometry">
            <mxPoint x="2070" y="1010" as="sourcePoint" />
            <mxPoint x="2069.88" y="980" as="targetPoint" />
            <Array as="points" />
          </mxGeometry>
        </mxCell>
        <mxCell id="BcuslAUmBP9xwM7Xt82V-464" value="" style="endArrow=none;html=1;rounded=0;startArrow=none;startFill=0;targetPerimeterSpacing=0;endFill=0;strokeWidth=1;endSize=6;entryX=0.5;entryY=1;entryDx=0;entryDy=0;exitX=0.5;exitY=0;exitDx=0;exitDy=0;" edge="1" parent="1">
          <mxGeometry width="50" height="50" relative="1" as="geometry">
            <mxPoint x="2140" y="1010" as="sourcePoint" />
            <mxPoint x="2069.75" y="980" as="targetPoint" />
            <Array as="points" />
          </mxGeometry>
        </mxCell>
        <mxCell id="BcuslAUmBP9xwM7Xt82V-465" value="" style="endArrow=none;html=1;rounded=0;startArrow=none;startFill=0;targetPerimeterSpacing=0;endFill=0;strokeWidth=1;endSize=6;entryX=0.5;entryY=1;entryDx=0;entryDy=0;exitX=0.5;exitY=0;exitDx=0;exitDy=0;" edge="1" parent="1">
          <mxGeometry width="50" height="50" relative="1" as="geometry">
            <mxPoint x="2000" y="1010" as="sourcePoint" />
            <mxPoint x="2069.75" y="980" as="targetPoint" />
            <Array as="points" />
          </mxGeometry>
        </mxCell>
        <mxCell id="BcuslAUmBP9xwM7Xt82V-466" value="landing" style="rounded=0;whiteSpace=wrap;html=1;" vertex="1" parent="1">
          <mxGeometry x="2040" y="860" width="60" height="30" as="geometry" />
        </mxCell>
        <mxCell id="BcuslAUmBP9xwM7Xt82V-467" value="contact" style="rounded=0;whiteSpace=wrap;html=1;" vertex="1" parent="1">
          <mxGeometry x="2110" y="820" width="60" height="30" as="geometry" />
        </mxCell>
        <mxCell id="BcuslAUmBP9xwM7Xt82V-468" value="tos" style="rounded=0;whiteSpace=wrap;html=1;" vertex="1" parent="1">
          <mxGeometry x="2110" y="860" width="60" height="30" as="geometry" />
        </mxCell>
        <mxCell id="BcuslAUmBP9xwM7Xt82V-469" value="privacy" style="rounded=0;whiteSpace=wrap;html=1;" vertex="1" parent="1">
          <mxGeometry x="1970" y="860" width="60" height="30" as="geometry" />
        </mxCell>
        <mxCell id="BcuslAUmBP9xwM7Xt82V-470" value="IO" style="rounded=0;whiteSpace=wrap;html=1;" vertex="1" parent="1">
          <mxGeometry x="2040" y="900" width="60" height="30" as="geometry" />
        </mxCell>
        <mxCell id="BcuslAUmBP9xwM7Xt82V-471" value="DEFAULT" style="rounded=0;whiteSpace=wrap;html=1;" vertex="1" parent="1">
          <mxGeometry x="2189.5" y="870" width="60" height="30" as="geometry" />
        </mxCell>
        <mxCell id="BcuslAUmBP9xwM7Xt82V-472" value="songView" style="rounded=0;whiteSpace=wrap;html=1;" vertex="1" parent="1">
          <mxGeometry x="2229" y="820" width="60" height="30" as="geometry" />
        </mxCell>
        <mxCell id="BcuslAUmBP9xwM7Xt82V-473" value="MODERN" style="rounded=0;whiteSpace=wrap;html=1;" vertex="1" parent="1">
          <mxGeometry x="2268.5" y="870" width="60" height="30" as="geometry" />
        </mxCell>
        <mxCell id="BcuslAUmBP9xwM7Xt82V-474" value="" style="endArrow=none;html=1;rounded=0;startArrow=none;startFill=0;targetPerimeterSpacing=0;endFill=0;strokeWidth=1;endSize=6;entryX=0.5;entryY=1;entryDx=0;entryDy=0;exitX=0.5;exitY=0;exitDx=0;exitDy=0;" edge="1" parent="1" source="BcuslAUmBP9xwM7Xt82V-473">
          <mxGeometry width="50" height="50" relative="1" as="geometry">
            <mxPoint x="2329" y="880" as="sourcePoint" />
            <mxPoint x="2258.75" y="850" as="targetPoint" />
            <Array as="points" />
          </mxGeometry>
        </mxCell>
        <mxCell id="BcuslAUmBP9xwM7Xt82V-475" value="" style="endArrow=none;html=1;rounded=0;startArrow=none;startFill=0;targetPerimeterSpacing=0;endFill=0;strokeWidth=1;endSize=6;entryX=0.5;entryY=1;entryDx=0;entryDy=0;exitX=0.5;exitY=0;exitDx=0;exitDy=0;" edge="1" parent="1" source="BcuslAUmBP9xwM7Xt82V-471">
          <mxGeometry width="50" height="50" relative="1" as="geometry">
            <mxPoint x="2189" y="880" as="sourcePoint" />
            <mxPoint x="2258.75" y="850" as="targetPoint" />
            <Array as="points" />
          </mxGeometry>
        </mxCell>
        <mxCell id="BcuslAUmBP9xwM7Xt82V-476" value="" style="triangle;whiteSpace=wrap;html=1;rotation=-90;fillColor=#000000;" vertex="1" parent="1">
          <mxGeometry x="2065" y="963" width="10" height="45" as="geometry" />
        </mxCell>
        <mxCell id="BcuslAUmBP9xwM7Xt82V-477" value="footer" style="rounded=0;whiteSpace=wrap;html=1;" vertex="1" parent="1">
          <mxGeometry x="2040" y="820" width="60" height="30" as="geometry" />
        </mxCell>
        <mxCell id="BcuslAUmBP9xwM7Xt82V-478" value="ž" style="triangle;whiteSpace=wrap;html=1;rotation=-90;fillColor=#000000;" vertex="1" parent="1">
          <mxGeometry x="2254" y="835.38" width="10" height="39.25" as="geometry" />
        </mxCell>
        <mxCell id="BcuslAUmBP9xwM7Xt82V-479" value="" style="endArrow=none;html=1;rounded=0;entryX=0.5;entryY=1;entryDx=0;entryDy=0;exitX=0.5;exitY=0;exitDx=0;exitDy=0;" edge="1" parent="1" source="BcuslAUmBP9xwM7Xt82V-453" target="BcuslAUmBP9xwM7Xt82V-456">
          <mxGeometry width="50" height="50" relative="1" as="geometry">
            <mxPoint x="2000" y="765" as="sourcePoint" />
            <mxPoint x="2079.5" y="685" as="targetPoint" />
          </mxGeometry>
        </mxCell>
        <mxCell id="BcuslAUmBP9xwM7Xt82V-480" value="" style="endArrow=none;html=1;rounded=0;entryX=0.5;entryY=1;entryDx=0;entryDy=0;exitX=0.5;exitY=0;exitDx=0;exitDy=0;" edge="1" parent="1" source="BcuslAUmBP9xwM7Xt82V-477" target="BcuslAUmBP9xwM7Xt82V-456">
          <mxGeometry width="50" height="50" relative="1" as="geometry">
            <mxPoint x="2070" y="870" as="sourcePoint" />
            <mxPoint x="2120" y="820" as="targetPoint" />
          </mxGeometry>
        </mxCell>
        <mxCell id="BcuslAUmBP9xwM7Xt82V-481" value="" style="endArrow=none;html=1;rounded=0;entryX=0.5;entryY=1;entryDx=0;entryDy=0;exitX=0.5;exitY=0;exitDx=0;exitDy=0;" edge="1" parent="1" source="BcuslAUmBP9xwM7Xt82V-467" target="BcuslAUmBP9xwM7Xt82V-456">
          <mxGeometry width="50" height="50" relative="1" as="geometry">
            <mxPoint x="2070" y="870" as="sourcePoint" />
            <mxPoint x="2120" y="820" as="targetPoint" />
          </mxGeometry>
        </mxCell>
        <mxCell id="BcuslAUmBP9xwM7Xt82V-482" value="" style="endArrow=none;html=1;rounded=0;entryX=0.5;entryY=1;entryDx=0;entryDy=0;exitX=0.5;exitY=0;exitDx=0;exitDy=0;" edge="1" parent="1" source="BcuslAUmBP9xwM7Xt82V-472" target="BcuslAUmBP9xwM7Xt82V-456">
          <mxGeometry width="50" height="50" relative="1" as="geometry">
            <mxPoint x="2070" y="870" as="sourcePoint" />
            <mxPoint x="2120" y="820" as="targetPoint" />
          </mxGeometry>
        </mxCell>
        <mxCell id="BcuslAUmBP9xwM7Xt82V-483" value="" style="endArrow=none;html=1;rounded=0;startArrow=none;startFill=0;targetPerimeterSpacing=0;endFill=0;strokeWidth=1;endSize=6;curved=1;" edge="1" parent="1">
          <mxGeometry width="50" height="50" relative="1" as="geometry">
            <mxPoint x="2180" y="798" as="sourcePoint" />
            <mxPoint x="2110" y="798" as="targetPoint" />
            <Array as="points">
              <mxPoint x="2150" y="818" />
            </Array>
          </mxGeometry>
        </mxCell>
        <mxCell id="BcuslAUmBP9xwM7Xt82V-484" value="" style="endArrow=oval;html=1;rounded=0;startArrow=none;startFill=0;targetPerimeterSpacing=10;endFill=0;strokeWidth=1;endSize=10;entryX=0.5;entryY=0;entryDx=0;entryDy=0;" edge="1" parent="1" target="BcuslAUmBP9xwM7Xt82V-456">
          <mxGeometry width="50" height="50" relative="1" as="geometry">
            <mxPoint x="2000" y="740" as="sourcePoint" />
            <mxPoint x="1999.5" y="815" as="targetPoint" />
            <Array as="points" />
          </mxGeometry>
        </mxCell>
        <mxCell id="BcuslAUmBP9xwM7Xt82V-485" value="" style="group" vertex="1" connectable="0" parent="1">
          <mxGeometry x="311.5" y="220" width="200.25" height="240" as="geometry" />
        </mxCell>
        <mxCell id="BcuslAUmBP9xwM7Xt82V-3" value="url" style="rounded=0;whiteSpace=wrap;html=1;" vertex="1" parent="BcuslAUmBP9xwM7Xt82V-485">
          <mxGeometry y="160" width="60" height="30" as="geometry" />
        </mxCell>
        <mxCell id="BcuslAUmBP9xwM7Xt82V-8" value="route Struct" style="rounded=0;whiteSpace=wrap;html=1;" vertex="1" parent="BcuslAUmBP9xwM7Xt82V-485">
          <mxGeometry x="69.75" y="110" width="60" height="30" as="geometry" />
        </mxCell>
        <mxCell id="BcuslAUmBP9xwM7Xt82V-14" value="PrivateOnly" style="rounded=0;whiteSpace=wrap;html=1;" vertex="1" parent="BcuslAUmBP9xwM7Xt82V-485">
          <mxGeometry x="110" y="210" width="60" height="30" as="geometry" />
        </mxCell>
        <mxCell id="BcuslAUmBP9xwM7Xt82V-15" value="PublicOnly" style="rounded=0;whiteSpace=wrap;html=1;" vertex="1" parent="BcuslAUmBP9xwM7Xt82V-485">
          <mxGeometry x="30" y="210" width="60" height="30" as="geometry" />
        </mxCell>
        <mxCell id="BcuslAUmBP9xwM7Xt82V-16" value="access" style="rounded=0;whiteSpace=wrap;html=1;" vertex="1" parent="BcuslAUmBP9xwM7Xt82V-485">
          <mxGeometry x="70" y="160" width="60" height="30" as="geometry" />
        </mxCell>
        <mxCell id="BcuslAUmBP9xwM7Xt82V-34" value="" style="endArrow=oval;html=1;rounded=0;startArrow=none;startFill=0;targetPerimeterSpacing=10;endFill=1;strokeWidth=1;endSize=10;entryX=0.5;entryY=0;entryDx=0;entryDy=0;exitX=0.5;exitY=1;exitDx=0;exitDy=0;" edge="1" parent="BcuslAUmBP9xwM7Xt82V-485" source="BcuslAUmBP9xwM7Xt82V-8" target="BcuslAUmBP9xwM7Xt82V-3">
          <mxGeometry width="50" height="50" relative="1" as="geometry">
            <mxPoint x="186.5" y="170" as="sourcePoint" />
            <mxPoint x="-153.5" y="240" as="targetPoint" />
            <Array as="points" />
          </mxGeometry>
        </mxCell>
        <mxCell id="BcuslAUmBP9xwM7Xt82V-35" value="" style="endArrow=oval;html=1;rounded=0;startArrow=none;startFill=0;targetPerimeterSpacing=10;endFill=0;strokeWidth=1;endSize=10;entryX=0.5;entryY=0;entryDx=0;entryDy=0;exitX=0.5;exitY=1;exitDx=0;exitDy=0;" edge="1" parent="BcuslAUmBP9xwM7Xt82V-485" source="BcuslAUmBP9xwM7Xt82V-8" target="BcuslAUmBP9xwM7Xt82V-16">
          <mxGeometry width="50" height="50" relative="1" as="geometry">
            <mxPoint x="166.5" y="120" as="sourcePoint" />
            <mxPoint x="126.49999999999989" y="160" as="targetPoint" />
            <Array as="points" />
          </mxGeometry>
        </mxCell>
        <mxCell id="BcuslAUmBP9xwM7Xt82V-36" value="" style="endArrow=none;html=1;rounded=0;entryX=0.5;entryY=1;entryDx=0;entryDy=0;exitX=0.5;exitY=0;exitDx=0;exitDy=0;" edge="1" parent="BcuslAUmBP9xwM7Xt82V-485" source="BcuslAUmBP9xwM7Xt82V-15" target="BcuslAUmBP9xwM7Xt82V-16">
          <mxGeometry width="50" height="50" relative="1" as="geometry">
            <mxPoint x="59.999999999999886" y="210" as="sourcePoint" />
            <mxPoint x="-60" y="200" as="targetPoint" />
          </mxGeometry>
        </mxCell>
        <mxCell id="BcuslAUmBP9xwM7Xt82V-37" value="" style="endArrow=none;html=1;rounded=0;exitX=0.5;exitY=0;exitDx=0;exitDy=0;" edge="1" parent="BcuslAUmBP9xwM7Xt82V-485" source="BcuslAUmBP9xwM7Xt82V-14">
          <mxGeometry width="50" height="50" relative="1" as="geometry">
            <mxPoint x="140" y="200" as="sourcePoint" />
            <mxPoint x="100" y="190" as="targetPoint" />
          </mxGeometry>
        </mxCell>
        <mxCell id="BcuslAUmBP9xwM7Xt82V-38" value="" style="triangle;whiteSpace=wrap;html=1;rotation=-90;fillColor=#000000;" vertex="1" parent="BcuslAUmBP9xwM7Xt82V-485">
          <mxGeometry x="93.5" y="174.75" width="12.5" height="40" as="geometry" />
        </mxCell>
        <mxCell id="BcuslAUmBP9xwM7Xt82V-43" value="routes" style="rounded=0;whiteSpace=wrap;html=1;" vertex="1" parent="BcuslAUmBP9xwM7Xt82V-485">
          <mxGeometry x="70.25" width="60" height="30" as="geometry" />
        </mxCell>
        <mxCell id="BcuslAUmBP9xwM7Xt82V-44" value="route1" style="rounded=0;whiteSpace=wrap;html=1;" vertex="1" parent="BcuslAUmBP9xwM7Xt82V-485">
          <mxGeometry y="60" width="60" height="30" as="geometry" />
        </mxCell>
        <mxCell id="BcuslAUmBP9xwM7Xt82V-45" value="route2" style="rounded=0;whiteSpace=wrap;html=1;" vertex="1" parent="BcuslAUmBP9xwM7Xt82V-485">
          <mxGeometry x="70.25" y="60" width="60" height="30" as="geometry" />
        </mxCell>
        <mxCell id="BcuslAUmBP9xwM7Xt82V-46" value="..." style="rounded=0;whiteSpace=wrap;html=1;" vertex="1" parent="BcuslAUmBP9xwM7Xt82V-485">
          <mxGeometry x="140.25" y="60" width="60" height="30" as="geometry" />
        </mxCell>
        <mxCell id="BcuslAUmBP9xwM7Xt82V-47" value="" style="endArrow=none;html=1;rounded=0;entryX=0.5;entryY=1;entryDx=0;entryDy=0;exitX=0.5;exitY=0;exitDx=0;exitDy=0;" edge="1" parent="BcuslAUmBP9xwM7Xt82V-485" source="BcuslAUmBP9xwM7Xt82V-8" target="BcuslAUmBP9xwM7Xt82V-44">
          <mxGeometry width="50" height="50" relative="1" as="geometry">
            <mxPoint x="110.25" y="200" as="sourcePoint" />
            <mxPoint x="160.25" y="150" as="targetPoint" />
          </mxGeometry>
        </mxCell>
        <mxCell id="BcuslAUmBP9xwM7Xt82V-48" value="" style="endArrow=none;html=1;rounded=0;entryX=0.5;entryY=1;entryDx=0;entryDy=0;exitX=0.5;exitY=0;exitDx=0;exitDy=0;" edge="1" parent="BcuslAUmBP9xwM7Xt82V-485" source="BcuslAUmBP9xwM7Xt82V-8" target="BcuslAUmBP9xwM7Xt82V-45">
          <mxGeometry width="50" height="50" relative="1" as="geometry">
            <mxPoint x="110.25" y="200" as="sourcePoint" />
            <mxPoint x="160.25" y="150" as="targetPoint" />
          </mxGeometry>
        </mxCell>
        <mxCell id="BcuslAUmBP9xwM7Xt82V-49" value="" style="endArrow=none;html=1;rounded=0;entryX=0.5;entryY=1;entryDx=0;entryDy=0;exitX=0.5;exitY=0;exitDx=0;exitDy=0;" edge="1" parent="BcuslAUmBP9xwM7Xt82V-485" source="BcuslAUmBP9xwM7Xt82V-8" target="BcuslAUmBP9xwM7Xt82V-46">
          <mxGeometry width="50" height="50" relative="1" as="geometry">
            <mxPoint x="110.25" y="200" as="sourcePoint" />
            <mxPoint x="160.25" y="150" as="targetPoint" />
          </mxGeometry>
        </mxCell>
        <mxCell id="BcuslAUmBP9xwM7Xt82V-50" value="" style="endArrow=none;html=1;rounded=0;startArrow=none;startFill=0;targetPerimeterSpacing=0;endFill=0;strokeWidth=1;endSize=6;exitX=0.5;exitY=0;exitDx=0;exitDy=0;" edge="1" parent="BcuslAUmBP9xwM7Xt82V-485" source="BcuslAUmBP9xwM7Xt82V-45">
          <mxGeometry width="50" height="50" relative="1" as="geometry">
            <mxPoint x="220.13" y="190" as="sourcePoint" />
            <mxPoint x="100.13" y="30" as="targetPoint" />
            <Array as="points" />
          </mxGeometry>
        </mxCell>
        <mxCell id="BcuslAUmBP9xwM7Xt82V-51" value="" style="endArrow=none;html=1;rounded=0;startArrow=none;startFill=0;targetPerimeterSpacing=0;endFill=0;strokeWidth=1;endSize=6;entryX=0.5;entryY=1;entryDx=0;entryDy=0;exitX=0.5;exitY=0;exitDx=0;exitDy=0;" edge="1" parent="BcuslAUmBP9xwM7Xt82V-485" source="BcuslAUmBP9xwM7Xt82V-46" target="BcuslAUmBP9xwM7Xt82V-43">
          <mxGeometry width="50" height="50" relative="1" as="geometry">
            <mxPoint x="340.13" y="155" as="sourcePoint" />
            <mxPoint x="240.13" y="65" as="targetPoint" />
            <Array as="points" />
          </mxGeometry>
        </mxCell>
        <mxCell id="BcuslAUmBP9xwM7Xt82V-52" value="" style="endArrow=none;html=1;rounded=0;startArrow=none;startFill=0;targetPerimeterSpacing=0;endFill=0;strokeWidth=1;endSize=6;curved=1;" edge="1" parent="BcuslAUmBP9xwM7Xt82V-485">
          <mxGeometry width="50" height="50" relative="1" as="geometry">
            <mxPoint x="140.13" y="40" as="sourcePoint" />
            <mxPoint x="60.129999999999995" y="40" as="targetPoint" />
            <Array as="points">
              <mxPoint x="100.13" y="60" />
            </Array>
          </mxGeometry>
        </mxCell>
        <mxCell id="BcuslAUmBP9xwM7Xt82V-53" value="" style="endArrow=none;html=1;rounded=0;startArrow=none;startFill=0;targetPerimeterSpacing=0;endFill=0;strokeWidth=1;endSize=6;entryX=0.5;entryY=1;entryDx=0;entryDy=0;exitX=0.5;exitY=0;exitDx=0;exitDy=0;" edge="1" parent="BcuslAUmBP9xwM7Xt82V-485" source="BcuslAUmBP9xwM7Xt82V-44" target="BcuslAUmBP9xwM7Xt82V-43">
          <mxGeometry width="50" height="50" relative="1" as="geometry">
            <mxPoint x="250.13" y="200" as="sourcePoint" />
            <mxPoint x="180.13" y="110" as="targetPoint" />
            <Array as="points" />
          </mxGeometry>
        </mxCell>
        <mxCell id="BcuslAUmBP9xwM7Xt82V-486" value="" style="group" vertex="1" connectable="0" parent="1">
          <mxGeometry x="531.5" y="220" width="380" height="400" as="geometry" />
        </mxCell>
        <mxCell id="BcuslAUmBP9xwM7Xt82V-7" value="api" style="rounded=0;whiteSpace=wrap;html=1;" vertex="1" parent="BcuslAUmBP9xwM7Xt82V-486">
          <mxGeometry x="70" width="60" height="30" as="geometry" />
        </mxCell>
        <mxCell id="BcuslAUmBP9xwM7Xt82V-11" value="apis" style="rounded=0;whiteSpace=wrap;html=1;" vertex="1" parent="BcuslAUmBP9xwM7Xt82V-486">
          <mxGeometry x="140" y="60" width="60" height="30" as="geometry" />
        </mxCell>
        <mxCell id="BcuslAUmBP9xwM7Xt82V-12" value="port" style="rounded=0;whiteSpace=wrap;html=1;" vertex="1" parent="BcuslAUmBP9xwM7Xt82V-486">
          <mxGeometry x="70" y="60" width="60" height="30" as="geometry" />
        </mxCell>
        <mxCell id="BcuslAUmBP9xwM7Xt82V-13" value="base" style="rounded=0;whiteSpace=wrap;html=1;" vertex="1" parent="BcuslAUmBP9xwM7Xt82V-486">
          <mxGeometry y="60" width="60" height="30" as="geometry" />
        </mxCell>
        <mxCell id="BcuslAUmBP9xwM7Xt82V-56" value="auth" style="rounded=0;whiteSpace=wrap;html=1;" vertex="1" parent="BcuslAUmBP9xwM7Xt82V-486">
          <mxGeometry x="320" y="370" width="60" height="30" as="geometry" />
        </mxCell>
        <mxCell id="BcuslAUmBP9xwM7Xt82V-57" value="method" style="rounded=0;whiteSpace=wrap;html=1;" vertex="1" parent="BcuslAUmBP9xwM7Xt82V-486">
          <mxGeometry x="250" y="370" width="60" height="30" as="geometry" />
        </mxCell>
        <mxCell id="BcuslAUmBP9xwM7Xt82V-58" value="url" style="rounded=0;whiteSpace=wrap;html=1;" vertex="1" parent="BcuslAUmBP9xwM7Xt82V-486">
          <mxGeometry x="170" y="370" width="60" height="30" as="geometry" />
        </mxCell>
        <mxCell id="BcuslAUmBP9xwM7Xt82V-59" value="endpoint&lt;div&gt;Struct&lt;/div&gt;" style="rounded=0;whiteSpace=wrap;html=1;" vertex="1" parent="BcuslAUmBP9xwM7Xt82V-486">
          <mxGeometry x="210" y="320" width="60" height="30" as="geometry" />
        </mxCell>
        <mxCell id="BcuslAUmBP9xwM7Xt82V-60" value="api1" style="rounded=0;whiteSpace=wrap;html=1;" vertex="1" parent="BcuslAUmBP9xwM7Xt82V-486">
          <mxGeometry x="100" y="110" width="60" height="30" as="geometry" />
        </mxCell>
        <mxCell id="BcuslAUmBP9xwM7Xt82V-61" value="..." style="rounded=0;whiteSpace=wrap;html=1;" vertex="1" parent="BcuslAUmBP9xwM7Xt82V-486">
          <mxGeometry x="180" y="110" width="60" height="30" as="geometry" />
        </mxCell>
        <mxCell id="BcuslAUmBP9xwM7Xt82V-63" value="" style="endArrow=none;html=1;rounded=0;startArrow=none;startFill=0;targetPerimeterSpacing=0;endFill=0;strokeWidth=1;endSize=6;entryX=0.5;entryY=1;entryDx=0;entryDy=0;exitX=0.5;exitY=0;exitDx=0;exitDy=0;" edge="1" parent="BcuslAUmBP9xwM7Xt82V-486" source="BcuslAUmBP9xwM7Xt82V-61">
          <mxGeometry width="50" height="50" relative="1" as="geometry">
            <mxPoint x="240" y="120" as="sourcePoint" />
            <mxPoint x="170" y="90" as="targetPoint" />
            <Array as="points" />
          </mxGeometry>
        </mxCell>
        <mxCell id="BcuslAUmBP9xwM7Xt82V-64" value="" style="endArrow=none;html=1;rounded=0;startArrow=none;startFill=0;targetPerimeterSpacing=0;endFill=0;strokeWidth=1;endSize=6;curved=1;" edge="1" parent="BcuslAUmBP9xwM7Xt82V-486">
          <mxGeometry width="50" height="50" relative="1" as="geometry">
            <mxPoint x="190" y="100" as="sourcePoint" />
            <mxPoint x="150" y="100" as="targetPoint" />
            <Array as="points">
              <mxPoint x="170" y="110" />
            </Array>
          </mxGeometry>
        </mxCell>
        <mxCell id="BcuslAUmBP9xwM7Xt82V-65" value="" style="endArrow=none;html=1;rounded=0;startArrow=none;startFill=0;targetPerimeterSpacing=0;endFill=0;strokeWidth=1;endSize=6;exitX=0.5;exitY=0;exitDx=0;exitDy=0;" edge="1" parent="BcuslAUmBP9xwM7Xt82V-486" source="BcuslAUmBP9xwM7Xt82V-60">
          <mxGeometry width="50" height="50" relative="1" as="geometry">
            <mxPoint x="100" y="120" as="sourcePoint" />
            <mxPoint x="170" y="90" as="targetPoint" />
            <Array as="points" />
          </mxGeometry>
        </mxCell>
        <mxCell id="BcuslAUmBP9xwM7Xt82V-68" value="" style="endArrow=none;html=1;rounded=0;entryX=0.5;entryY=1;entryDx=0;entryDy=0;exitX=0.5;exitY=0;exitDx=0;exitDy=0;" edge="1" parent="BcuslAUmBP9xwM7Xt82V-486" source="BcuslAUmBP9xwM7Xt82V-82" target="BcuslAUmBP9xwM7Xt82V-60">
          <mxGeometry width="50" height="50" relative="1" as="geometry">
            <mxPoint x="160" y="170" as="sourcePoint" />
            <mxPoint x="20" y="140" as="targetPoint" />
          </mxGeometry>
        </mxCell>
        <mxCell id="BcuslAUmBP9xwM7Xt82V-69" value="" style="endArrow=none;html=1;rounded=0;entryX=0.5;entryY=1;entryDx=0;entryDy=0;exitX=0.5;exitY=0;exitDx=0;exitDy=0;" edge="1" parent="BcuslAUmBP9xwM7Xt82V-486" source="BcuslAUmBP9xwM7Xt82V-82" target="BcuslAUmBP9xwM7Xt82V-61">
          <mxGeometry width="50" height="50" relative="1" as="geometry">
            <mxPoint x="170" y="170" as="sourcePoint" />
            <mxPoint x="20" y="140" as="targetPoint" />
          </mxGeometry>
        </mxCell>
        <mxCell id="BcuslAUmBP9xwM7Xt82V-70" value="" style="endArrow=oval;html=1;rounded=0;startArrow=none;startFill=0;targetPerimeterSpacing=10;endFill=1;strokeWidth=1;endSize=10;exitX=0.5;exitY=1;exitDx=0;exitDy=0;entryX=0.5;entryY=0;entryDx=0;entryDy=0;" edge="1" parent="BcuslAUmBP9xwM7Xt82V-486" source="BcuslAUmBP9xwM7Xt82V-59" target="BcuslAUmBP9xwM7Xt82V-58">
          <mxGeometry width="50" height="50" relative="1" as="geometry">
            <mxPoint x="110" y="270" as="sourcePoint" />
            <mxPoint x="110" y="350" as="targetPoint" />
            <Array as="points" />
          </mxGeometry>
        </mxCell>
        <mxCell id="BcuslAUmBP9xwM7Xt82V-71" value="" style="endArrow=oval;html=1;rounded=0;startArrow=none;startFill=0;targetPerimeterSpacing=10;endFill=1;strokeWidth=1;endSize=10;entryX=0.5;entryY=0;entryDx=0;entryDy=0;exitX=0.5;exitY=1;exitDx=0;exitDy=0;" edge="1" parent="BcuslAUmBP9xwM7Xt82V-486" source="BcuslAUmBP9xwM7Xt82V-59" target="BcuslAUmBP9xwM7Xt82V-57">
          <mxGeometry width="50" height="50" relative="1" as="geometry">
            <mxPoint x="310" y="240" as="sourcePoint" />
            <mxPoint x="120" y="360" as="targetPoint" />
            <Array as="points" />
          </mxGeometry>
        </mxCell>
        <mxCell id="BcuslAUmBP9xwM7Xt82V-72" value="" style="endArrow=oval;html=1;rounded=0;startArrow=none;startFill=0;targetPerimeterSpacing=10;endFill=1;strokeWidth=1;endSize=10;exitX=0.5;exitY=1;exitDx=0;exitDy=0;entryX=0.5;entryY=0;entryDx=0;entryDy=0;" edge="1" parent="BcuslAUmBP9xwM7Xt82V-486" source="BcuslAUmBP9xwM7Xt82V-59" target="BcuslAUmBP9xwM7Xt82V-56">
          <mxGeometry width="50" height="50" relative="1" as="geometry">
            <mxPoint x="130" y="290" as="sourcePoint" />
            <mxPoint x="130" y="370" as="targetPoint" />
            <Array as="points" />
          </mxGeometry>
        </mxCell>
        <mxCell id="BcuslAUmBP9xwM7Xt82V-73" value="" style="endArrow=oval;html=1;rounded=0;startArrow=none;startFill=0;targetPerimeterSpacing=10;endFill=1;strokeWidth=1;endSize=10;exitX=0.5;exitY=1;exitDx=0;exitDy=0;entryX=0.5;entryY=0;entryDx=0;entryDy=0;" edge="1" parent="BcuslAUmBP9xwM7Xt82V-486" target="BcuslAUmBP9xwM7Xt82V-13">
          <mxGeometry width="50" height="50" relative="1" as="geometry">
            <mxPoint x="100" y="30" as="sourcePoint" />
            <mxPoint x="30" y="50" as="targetPoint" />
            <Array as="points" />
          </mxGeometry>
        </mxCell>
        <mxCell id="BcuslAUmBP9xwM7Xt82V-74" value="" style="endArrow=oval;html=1;rounded=0;startArrow=none;startFill=0;targetPerimeterSpacing=10;endFill=1;strokeWidth=1;endSize=10;entryX=0.5;entryY=0;entryDx=0;entryDy=0;" edge="1" parent="BcuslAUmBP9xwM7Xt82V-486" target="BcuslAUmBP9xwM7Xt82V-12">
          <mxGeometry width="50" height="50" relative="1" as="geometry">
            <mxPoint x="100" y="30" as="sourcePoint" />
            <mxPoint x="100" y="50" as="targetPoint" />
            <Array as="points" />
          </mxGeometry>
        </mxCell>
        <mxCell id="BcuslAUmBP9xwM7Xt82V-75" value="" style="endArrow=oval;html=1;rounded=0;startArrow=none;startFill=0;targetPerimeterSpacing=10;endFill=1;strokeWidth=1;endSize=10;exitX=0.5;exitY=1;exitDx=0;exitDy=0;entryX=0.5;entryY=0;entryDx=0;entryDy=0;" edge="1" parent="BcuslAUmBP9xwM7Xt82V-486" target="BcuslAUmBP9xwM7Xt82V-11">
          <mxGeometry width="50" height="50" relative="1" as="geometry">
            <mxPoint x="100" y="30" as="sourcePoint" />
            <mxPoint x="170" y="50" as="targetPoint" />
            <Array as="points" />
          </mxGeometry>
        </mxCell>
        <mxCell id="BcuslAUmBP9xwM7Xt82V-76" value="func name" style="rounded=0;whiteSpace=wrap;html=1;" vertex="1" parent="BcuslAUmBP9xwM7Xt82V-486">
          <mxGeometry x="100" y="370" width="60" height="30" as="geometry" />
        </mxCell>
        <mxCell id="BcuslAUmBP9xwM7Xt82V-78" value="" style="endArrow=oval;html=1;rounded=0;startArrow=none;startFill=0;targetPerimeterSpacing=10;endFill=1;strokeWidth=1;endSize=10;exitX=0.5;exitY=1;exitDx=0;exitDy=0;entryX=0.5;entryY=0;entryDx=0;entryDy=0;" edge="1" parent="BcuslAUmBP9xwM7Xt82V-486" source="BcuslAUmBP9xwM7Xt82V-59" target="BcuslAUmBP9xwM7Xt82V-76">
          <mxGeometry width="50" height="50" relative="1" as="geometry">
            <mxPoint x="49.5" y="250" as="sourcePoint" />
            <mxPoint x="49.5" y="330" as="targetPoint" />
            <Array as="points" />
          </mxGeometry>
        </mxCell>
        <mxCell id="BcuslAUmBP9xwM7Xt82V-82" value="api&lt;div&gt;Struct&lt;/div&gt;" style="rounded=0;whiteSpace=wrap;html=1;" vertex="1" parent="BcuslAUmBP9xwM7Xt82V-486">
          <mxGeometry x="140" y="160" width="60" height="30" as="geometry" />
        </mxCell>
        <mxCell id="BcuslAUmBP9xwM7Xt82V-83" value="endpoints" style="rounded=0;whiteSpace=wrap;html=1;" vertex="1" parent="BcuslAUmBP9xwM7Xt82V-486">
          <mxGeometry x="210" y="210" width="60" height="30" as="geometry" />
        </mxCell>
        <mxCell id="BcuslAUmBP9xwM7Xt82V-84" value="route" style="rounded=0;whiteSpace=wrap;html=1;" vertex="1" parent="BcuslAUmBP9xwM7Xt82V-486">
          <mxGeometry x="140" y="210" width="60" height="30" as="geometry" />
        </mxCell>
        <mxCell id="BcuslAUmBP9xwM7Xt82V-85" value="name" style="rounded=0;whiteSpace=wrap;html=1;" vertex="1" parent="BcuslAUmBP9xwM7Xt82V-486">
          <mxGeometry x="70" y="210" width="60" height="30" as="geometry" />
        </mxCell>
        <mxCell id="BcuslAUmBP9xwM7Xt82V-86" value="" style="endArrow=oval;html=1;rounded=0;startArrow=none;startFill=0;targetPerimeterSpacing=10;endFill=1;strokeWidth=1;endSize=10;exitX=0.5;exitY=1;exitDx=0;exitDy=0;entryX=0.5;entryY=0;entryDx=0;entryDy=0;" edge="1" parent="BcuslAUmBP9xwM7Xt82V-486" source="BcuslAUmBP9xwM7Xt82V-82" target="BcuslAUmBP9xwM7Xt82V-85">
          <mxGeometry width="50" height="50" relative="1" as="geometry">
            <mxPoint x="60" y="160" as="sourcePoint" />
            <mxPoint x="-10" y="190" as="targetPoint" />
            <Array as="points" />
          </mxGeometry>
        </mxCell>
        <mxCell id="BcuslAUmBP9xwM7Xt82V-87" value="" style="endArrow=oval;html=1;rounded=0;startArrow=none;startFill=0;targetPerimeterSpacing=10;endFill=1;strokeWidth=1;endSize=10;exitX=0.5;exitY=1;exitDx=0;exitDy=0;entryX=0.5;entryY=0;entryDx=0;entryDy=0;" edge="1" parent="BcuslAUmBP9xwM7Xt82V-486" source="BcuslAUmBP9xwM7Xt82V-82" target="BcuslAUmBP9xwM7Xt82V-84">
          <mxGeometry width="50" height="50" relative="1" as="geometry">
            <mxPoint x="350" y="150" as="sourcePoint" />
            <mxPoint x="280" y="180" as="targetPoint" />
            <Array as="points" />
          </mxGeometry>
        </mxCell>
        <mxCell id="BcuslAUmBP9xwM7Xt82V-88" value="" style="endArrow=oval;html=1;rounded=0;startArrow=none;startFill=0;targetPerimeterSpacing=10;endFill=1;strokeWidth=1;endSize=10;exitX=0.5;exitY=1;exitDx=0;exitDy=0;entryX=0.5;entryY=0;entryDx=0;entryDy=0;" edge="1" parent="BcuslAUmBP9xwM7Xt82V-486" source="BcuslAUmBP9xwM7Xt82V-82" target="BcuslAUmBP9xwM7Xt82V-83">
          <mxGeometry width="50" height="50" relative="1" as="geometry">
            <mxPoint x="360" y="160" as="sourcePoint" />
            <mxPoint x="290" y="190" as="targetPoint" />
            <Array as="points" />
          </mxGeometry>
        </mxCell>
        <mxCell id="BcuslAUmBP9xwM7Xt82V-89" value="route1" style="rounded=0;whiteSpace=wrap;html=1;" vertex="1" parent="BcuslAUmBP9xwM7Xt82V-486">
          <mxGeometry x="139.75" y="270" width="60" height="30" as="geometry" />
        </mxCell>
        <mxCell id="BcuslAUmBP9xwM7Xt82V-90" value="route2" style="rounded=0;whiteSpace=wrap;html=1;" vertex="1" parent="BcuslAUmBP9xwM7Xt82V-486">
          <mxGeometry x="210" y="270" width="60" height="30" as="geometry" />
        </mxCell>
        <mxCell id="BcuslAUmBP9xwM7Xt82V-91" value="..." style="rounded=0;whiteSpace=wrap;html=1;" vertex="1" parent="BcuslAUmBP9xwM7Xt82V-486">
          <mxGeometry x="280" y="270" width="60" height="30" as="geometry" />
        </mxCell>
        <mxCell id="BcuslAUmBP9xwM7Xt82V-92" value="" style="endArrow=none;html=1;rounded=0;entryX=0.5;entryY=1;entryDx=0;entryDy=0;exitX=0.5;exitY=0;exitDx=0;exitDy=0;" edge="1" parent="BcuslAUmBP9xwM7Xt82V-486" target="BcuslAUmBP9xwM7Xt82V-89">
          <mxGeometry width="50" height="50" relative="1" as="geometry">
            <mxPoint x="239.75" y="320" as="sourcePoint" />
            <mxPoint x="300" y="360" as="targetPoint" />
          </mxGeometry>
        </mxCell>
        <mxCell id="BcuslAUmBP9xwM7Xt82V-93" value="" style="endArrow=none;html=1;rounded=0;entryX=0.5;entryY=1;entryDx=0;entryDy=0;exitX=0.5;exitY=0;exitDx=0;exitDy=0;" edge="1" parent="BcuslAUmBP9xwM7Xt82V-486" target="BcuslAUmBP9xwM7Xt82V-90">
          <mxGeometry width="50" height="50" relative="1" as="geometry">
            <mxPoint x="239.75" y="320" as="sourcePoint" />
            <mxPoint x="300" y="360" as="targetPoint" />
          </mxGeometry>
        </mxCell>
        <mxCell id="BcuslAUmBP9xwM7Xt82V-94" value="" style="endArrow=none;html=1;rounded=0;entryX=0.5;entryY=1;entryDx=0;entryDy=0;exitX=0.5;exitY=0;exitDx=0;exitDy=0;" edge="1" parent="BcuslAUmBP9xwM7Xt82V-486" target="BcuslAUmBP9xwM7Xt82V-91">
          <mxGeometry width="50" height="50" relative="1" as="geometry">
            <mxPoint x="239.75" y="320" as="sourcePoint" />
            <mxPoint x="300" y="360" as="targetPoint" />
          </mxGeometry>
        </mxCell>
        <mxCell id="BcuslAUmBP9xwM7Xt82V-95" value="" style="endArrow=none;html=1;rounded=0;startArrow=none;startFill=0;targetPerimeterSpacing=0;endFill=0;strokeWidth=1;endSize=6;exitX=0.5;exitY=0;exitDx=0;exitDy=0;" edge="1" parent="BcuslAUmBP9xwM7Xt82V-486" source="BcuslAUmBP9xwM7Xt82V-90">
          <mxGeometry width="50" height="50" relative="1" as="geometry">
            <mxPoint x="359.88" y="400" as="sourcePoint" />
            <mxPoint x="239.88" y="240" as="targetPoint" />
            <Array as="points" />
          </mxGeometry>
        </mxCell>
        <mxCell id="BcuslAUmBP9xwM7Xt82V-96" value="" style="endArrow=none;html=1;rounded=0;startArrow=none;startFill=0;targetPerimeterSpacing=0;endFill=0;strokeWidth=1;endSize=6;entryX=0.5;entryY=1;entryDx=0;entryDy=0;exitX=0.5;exitY=0;exitDx=0;exitDy=0;" edge="1" parent="BcuslAUmBP9xwM7Xt82V-486" source="BcuslAUmBP9xwM7Xt82V-91">
          <mxGeometry width="50" height="50" relative="1" as="geometry">
            <mxPoint x="479.88" y="365" as="sourcePoint" />
            <mxPoint x="239.75" y="240" as="targetPoint" />
            <Array as="points" />
          </mxGeometry>
        </mxCell>
        <mxCell id="BcuslAUmBP9xwM7Xt82V-97" value="" style="endArrow=none;html=1;rounded=0;startArrow=none;startFill=0;targetPerimeterSpacing=0;endFill=0;strokeWidth=1;endSize=6;curved=1;" edge="1" parent="BcuslAUmBP9xwM7Xt82V-486">
          <mxGeometry width="50" height="50" relative="1" as="geometry">
            <mxPoint x="279.88" y="250" as="sourcePoint" />
            <mxPoint x="199.88" y="250" as="targetPoint" />
            <Array as="points">
              <mxPoint x="239.88" y="270" />
            </Array>
          </mxGeometry>
        </mxCell>
        <mxCell id="BcuslAUmBP9xwM7Xt82V-98" value="" style="endArrow=none;html=1;rounded=0;startArrow=none;startFill=0;targetPerimeterSpacing=0;endFill=0;strokeWidth=1;endSize=6;entryX=0.5;entryY=1;entryDx=0;entryDy=0;exitX=0.5;exitY=0;exitDx=0;exitDy=0;" edge="1" parent="BcuslAUmBP9xwM7Xt82V-486" source="BcuslAUmBP9xwM7Xt82V-89">
          <mxGeometry width="50" height="50" relative="1" as="geometry">
            <mxPoint x="389.88" y="410" as="sourcePoint" />
            <mxPoint x="239.75" y="240" as="targetPoint" />
            <Array as="points" />
          </mxGeometry>
        </mxCell>
        <mxCell id="BcuslAUmBP9xwM7Xt82V-487" value="" style="group" vertex="1" connectable="0" parent="1">
          <mxGeometry x="818.25" y="220" width="526.5" height="320" as="geometry" />
        </mxCell>
        <mxCell id="BcuslAUmBP9xwM7Xt82V-176" value="" style="endArrow=none;html=1;rounded=0;exitX=0.5;exitY=0;exitDx=0;exitDy=0;" edge="1" parent="BcuslAUmBP9xwM7Xt82V-487" source="BcuslAUmBP9xwM7Xt82V-134">
          <mxGeometry width="50" height="50" relative="1" as="geometry">
            <mxPoint x="256.5" y="190" as="sourcePoint" />
            <mxPoint x="426.5" y="140" as="targetPoint" />
          </mxGeometry>
        </mxCell>
        <mxCell id="BcuslAUmBP9xwM7Xt82V-177" value="" style="endArrow=none;html=1;rounded=0;exitX=0.5;exitY=0;exitDx=0;exitDy=0;" edge="1" parent="BcuslAUmBP9xwM7Xt82V-487" source="BcuslAUmBP9xwM7Xt82V-175">
          <mxGeometry width="50" height="50" relative="1" as="geometry">
            <mxPoint x="256.5" y="190" as="sourcePoint" />
            <mxPoint x="426.5" y="140" as="targetPoint" />
          </mxGeometry>
        </mxCell>
        <mxCell id="BcuslAUmBP9xwM7Xt82V-178" value="" style="endArrow=none;html=1;rounded=0;entryX=0.5;entryY=0;entryDx=0;entryDy=0;" edge="1" parent="BcuslAUmBP9xwM7Xt82V-487" target="BcuslAUmBP9xwM7Xt82V-133">
          <mxGeometry width="50" height="50" relative="1" as="geometry">
            <mxPoint x="426.5" y="140" as="sourcePoint" />
            <mxPoint x="306.5" y="140" as="targetPoint" />
          </mxGeometry>
        </mxCell>
        <mxCell id="BcuslAUmBP9xwM7Xt82V-179" value="" style="endArrow=none;html=1;rounded=0;entryX=0.5;entryY=0;entryDx=0;entryDy=0;" edge="1" parent="BcuslAUmBP9xwM7Xt82V-487" target="BcuslAUmBP9xwM7Xt82V-132">
          <mxGeometry width="50" height="50" relative="1" as="geometry">
            <mxPoint x="426.5" y="140" as="sourcePoint" />
            <mxPoint x="306.5" y="140" as="targetPoint" />
          </mxGeometry>
        </mxCell>
        <mxCell id="BcuslAUmBP9xwM7Xt82V-156" value="" style="endArrow=none;html=1;rounded=0;exitX=0.5;exitY=0;exitDx=0;exitDy=0;" edge="1" parent="BcuslAUmBP9xwM7Xt82V-487" source="BcuslAUmBP9xwM7Xt82V-136">
          <mxGeometry width="50" height="50" relative="1" as="geometry">
            <mxPoint x="70" y="260" as="sourcePoint" />
            <mxPoint x="140" y="140" as="targetPoint" />
          </mxGeometry>
        </mxCell>
        <mxCell id="BcuslAUmBP9xwM7Xt82V-157" value="" style="endArrow=none;html=1;rounded=0;exitX=0.5;exitY=0;exitDx=0;exitDy=0;" edge="1" parent="BcuslAUmBP9xwM7Xt82V-487" source="BcuslAUmBP9xwM7Xt82V-135">
          <mxGeometry width="50" height="50" relative="1" as="geometry">
            <mxPoint x="70" y="260" as="sourcePoint" />
            <mxPoint x="140" y="140" as="targetPoint" />
          </mxGeometry>
        </mxCell>
        <mxCell id="BcuslAUmBP9xwM7Xt82V-152" value="" style="endArrow=none;html=1;rounded=0;startArrow=none;startFill=0;targetPerimeterSpacing=0;endFill=0;strokeWidth=1;endSize=6;exitX=0.5;exitY=0;exitDx=0;exitDy=0;" edge="1" parent="BcuslAUmBP9xwM7Xt82V-487" source="BcuslAUmBP9xwM7Xt82V-124">
          <mxGeometry width="50" height="50" relative="1" as="geometry">
            <mxPoint x="160" y="350" as="sourcePoint" />
            <mxPoint x="140" y="140" as="targetPoint" />
            <Array as="points" />
          </mxGeometry>
        </mxCell>
        <mxCell id="BcuslAUmBP9xwM7Xt82V-153" value="" style="endArrow=none;html=1;rounded=0;startArrow=none;startFill=0;targetPerimeterSpacing=0;endFill=0;strokeWidth=1;endSize=6;exitX=0.5;exitY=0;exitDx=0;exitDy=0;" edge="1" parent="BcuslAUmBP9xwM7Xt82V-487" source="BcuslAUmBP9xwM7Xt82V-137">
          <mxGeometry width="50" height="50" relative="1" as="geometry">
            <mxPoint x="230" y="350" as="sourcePoint" />
            <mxPoint x="140" y="140" as="targetPoint" />
            <Array as="points" />
          </mxGeometry>
        </mxCell>
        <mxCell id="BcuslAUmBP9xwM7Xt82V-155" value="" style="endArrow=none;html=1;rounded=0;startArrow=none;startFill=0;targetPerimeterSpacing=0;endFill=0;strokeWidth=1;endSize=6;exitX=0.5;exitY=0;exitDx=0;exitDy=0;" edge="1" parent="BcuslAUmBP9xwM7Xt82V-487" source="BcuslAUmBP9xwM7Xt82V-125">
          <mxGeometry width="50" height="50" relative="1" as="geometry">
            <mxPoint x="57" y="355" as="sourcePoint" />
            <mxPoint x="140" y="140" as="targetPoint" />
            <Array as="points" />
          </mxGeometry>
        </mxCell>
        <mxCell id="BcuslAUmBP9xwM7Xt82V-81" value="components" style="rounded=0;whiteSpace=wrap;html=1;" vertex="1" parent="BcuslAUmBP9xwM7Xt82V-487">
          <mxGeometry x="170" width="80" height="30" as="geometry" />
        </mxCell>
        <mxCell id="BcuslAUmBP9xwM7Xt82V-112" value="shownAttributes" style="rounded=0;whiteSpace=wrap;html=1;" vertex="1" parent="BcuslAUmBP9xwM7Xt82V-487">
          <mxGeometry x="376.5" y="110" width="100" height="30" as="geometry" />
        </mxCell>
        <mxCell id="BcuslAUmBP9xwM7Xt82V-113" value="defaultCols" style="rounded=0;whiteSpace=wrap;html=1;" vertex="1" parent="BcuslAUmBP9xwM7Xt82V-487">
          <mxGeometry x="190" y="110" width="80" height="30" as="geometry" />
        </mxCell>
        <mxCell id="BcuslAUmBP9xwM7Xt82V-114" value="defaultRows" style="rounded=0;whiteSpace=wrap;html=1;" vertex="1" parent="BcuslAUmBP9xwM7Xt82V-487">
          <mxGeometry x="282.5" y="110" width="80" height="30" as="geometry" />
        </mxCell>
        <mxCell id="BcuslAUmBP9xwM7Xt82V-115" value="SongsView" style="rounded=0;whiteSpace=wrap;html=1;" vertex="1" parent="BcuslAUmBP9xwM7Xt82V-487">
          <mxGeometry x="287.5" y="60" width="70" height="30" as="geometry" />
        </mxCell>
        <mxCell id="BcuslAUmBP9xwM7Xt82V-116" value="filtersBasePath" style="rounded=0;whiteSpace=wrap;html=1;" vertex="1" parent="BcuslAUmBP9xwM7Xt82V-487">
          <mxGeometry y="110" width="100" height="30" as="geometry" />
        </mxCell>
        <mxCell id="BcuslAUmBP9xwM7Xt82V-117" value="filterSidebar" style="rounded=0;whiteSpace=wrap;html=1;" vertex="1" parent="BcuslAUmBP9xwM7Xt82V-487">
          <mxGeometry x="60" y="60" width="80" height="30" as="geometry" />
        </mxCell>
        <mxCell id="BcuslAUmBP9xwM7Xt82V-118" value="filters" style="rounded=0;whiteSpace=wrap;html=1;" vertex="1" parent="BcuslAUmBP9xwM7Xt82V-487">
          <mxGeometry x="110" y="110" width="60" height="30" as="geometry" />
        </mxCell>
        <mxCell id="BcuslAUmBP9xwM7Xt82V-120" value="" style="endArrow=oval;html=1;rounded=0;startArrow=none;startFill=0;targetPerimeterSpacing=10;endFill=1;strokeWidth=1;endSize=10;exitX=0.5;exitY=1;exitDx=0;exitDy=0;entryX=0.5;entryY=0;entryDx=0;entryDy=0;" edge="1" parent="BcuslAUmBP9xwM7Xt82V-487" source="BcuslAUmBP9xwM7Xt82V-117" target="BcuslAUmBP9xwM7Xt82V-118">
          <mxGeometry width="50" height="50" relative="1" as="geometry">
            <mxPoint x="206" y="70" as="sourcePoint" />
            <mxPoint x="206" y="150" as="targetPoint" />
            <Array as="points" />
          </mxGeometry>
        </mxCell>
        <mxCell id="BcuslAUmBP9xwM7Xt82V-122" value="" style="endArrow=oval;html=1;rounded=0;startArrow=none;startFill=0;targetPerimeterSpacing=10;endFill=0;strokeWidth=1;endSize=10;exitX=0.5;exitY=1;exitDx=0;exitDy=0;entryX=0.5;entryY=0;entryDx=0;entryDy=0;" edge="1" parent="BcuslAUmBP9xwM7Xt82V-487" source="BcuslAUmBP9xwM7Xt82V-117" target="BcuslAUmBP9xwM7Xt82V-116">
          <mxGeometry width="50" height="50" relative="1" as="geometry">
            <mxPoint x="200" y="-122.63" as="sourcePoint" />
            <mxPoint x="200" y="-42.629999999999995" as="targetPoint" />
            <Array as="points" />
          </mxGeometry>
        </mxCell>
        <mxCell id="BcuslAUmBP9xwM7Xt82V-126" value="Title" style="rounded=0;whiteSpace=wrap;html=1;" vertex="1" parent="BcuslAUmBP9xwM7Xt82V-487">
          <mxGeometry x="180" y="170" width="60" height="30" as="geometry" />
        </mxCell>
        <mxCell id="BcuslAUmBP9xwM7Xt82V-127" value="Artist" style="rounded=0;whiteSpace=wrap;html=1;" vertex="1" parent="BcuslAUmBP9xwM7Xt82V-487">
          <mxGeometry x="110" y="170" width="60" height="30" as="geometry" />
        </mxCell>
        <mxCell id="BcuslAUmBP9xwM7Xt82V-132" value="Disc&lt;div&gt;Number&lt;/div&gt;" style="rounded=0;whiteSpace=wrap;html=1;" vertex="1" parent="BcuslAUmBP9xwM7Xt82V-487">
          <mxGeometry x="466.5" y="290" width="60" height="30" as="geometry" />
        </mxCell>
        <mxCell id="BcuslAUmBP9xwM7Xt82V-133" value="Track&lt;div&gt;Number&lt;/div&gt;" style="rounded=0;whiteSpace=wrap;html=1;" vertex="1" parent="BcuslAUmBP9xwM7Xt82V-487">
          <mxGeometry x="396.5" y="290" width="60" height="30" as="geometry" />
        </mxCell>
        <mxCell id="BcuslAUmBP9xwM7Xt82V-134" value="Format" style="rounded=0;whiteSpace=wrap;html=1;" vertex="1" parent="BcuslAUmBP9xwM7Xt82V-487">
          <mxGeometry x="466.5" y="250" width="60" height="30" as="geometry" />
        </mxCell>
        <mxCell id="BcuslAUmBP9xwM7Xt82V-148" value="" style="endArrow=none;html=1;rounded=0;startArrow=none;startFill=0;targetPerimeterSpacing=0;endFill=0;strokeWidth=1;endSize=6;exitX=0.5;exitY=0;exitDx=0;exitDy=0;" edge="1" parent="BcuslAUmBP9xwM7Xt82V-487">
          <mxGeometry width="50" height="50" relative="1" as="geometry">
            <mxPoint x="140" y="170" as="sourcePoint" />
            <mxPoint x="139.88" y="140" as="targetPoint" />
            <Array as="points" />
          </mxGeometry>
        </mxCell>
        <mxCell id="BcuslAUmBP9xwM7Xt82V-149" value="" style="endArrow=none;html=1;rounded=0;startArrow=none;startFill=0;targetPerimeterSpacing=0;endFill=0;strokeWidth=1;endSize=6;entryX=0.5;entryY=1;entryDx=0;entryDy=0;exitX=0.5;exitY=0;exitDx=0;exitDy=0;" edge="1" parent="BcuslAUmBP9xwM7Xt82V-487">
          <mxGeometry width="50" height="50" relative="1" as="geometry">
            <mxPoint x="210" y="170" as="sourcePoint" />
            <mxPoint x="139.75" y="140" as="targetPoint" />
            <Array as="points" />
          </mxGeometry>
        </mxCell>
        <mxCell id="BcuslAUmBP9xwM7Xt82V-150" value="" style="endArrow=none;html=1;rounded=0;startArrow=none;startFill=0;targetPerimeterSpacing=0;endFill=0;strokeWidth=1;endSize=6;curved=1;" edge="1" parent="BcuslAUmBP9xwM7Xt82V-487">
          <mxGeometry width="50" height="50" relative="1" as="geometry">
            <mxPoint x="179.88" y="150" as="sourcePoint" />
            <mxPoint x="99.88" y="150" as="targetPoint" />
            <Array as="points">
              <mxPoint x="139.88" y="170" />
            </Array>
          </mxGeometry>
        </mxCell>
        <mxCell id="BcuslAUmBP9xwM7Xt82V-151" value="" style="endArrow=none;html=1;rounded=0;startArrow=none;startFill=0;targetPerimeterSpacing=0;endFill=0;strokeWidth=1;endSize=6;entryX=0.5;entryY=1;entryDx=0;entryDy=0;exitX=0.5;exitY=0;exitDx=0;exitDy=0;" edge="1" parent="BcuslAUmBP9xwM7Xt82V-487">
          <mxGeometry width="50" height="50" relative="1" as="geometry">
            <mxPoint x="70" y="170" as="sourcePoint" />
            <mxPoint x="139.75" y="140" as="targetPoint" />
            <Array as="points" />
          </mxGeometry>
        </mxCell>
        <mxCell id="BcuslAUmBP9xwM7Xt82V-128" value="Album" style="rounded=0;whiteSpace=wrap;html=1;" vertex="1" parent="BcuslAUmBP9xwM7Xt82V-487">
          <mxGeometry x="40" y="170" width="60" height="30" as="geometry" />
        </mxCell>
        <mxCell id="BcuslAUmBP9xwM7Xt82V-124" value="Year" style="rounded=0;whiteSpace=wrap;html=1;" vertex="1" parent="BcuslAUmBP9xwM7Xt82V-487">
          <mxGeometry x="110" y="210" width="60" height="30" as="geometry" />
        </mxCell>
        <mxCell id="BcuslAUmBP9xwM7Xt82V-125" value="Genre" style="rounded=0;whiteSpace=wrap;html=1;" vertex="1" parent="BcuslAUmBP9xwM7Xt82V-487">
          <mxGeometry x="40" y="210" width="60" height="30" as="geometry" />
        </mxCell>
        <mxCell id="BcuslAUmBP9xwM7Xt82V-135" value="Bitrate" style="rounded=0;whiteSpace=wrap;html=1;" vertex="1" parent="BcuslAUmBP9xwM7Xt82V-487">
          <mxGeometry x="150" y="250" width="60" height="30" as="geometry" />
        </mxCell>
        <mxCell id="BcuslAUmBP9xwM7Xt82V-136" value="Format" style="rounded=0;whiteSpace=wrap;html=1;" vertex="1" parent="BcuslAUmBP9xwM7Xt82V-487">
          <mxGeometry x="70" y="250" width="60" height="30" as="geometry" />
        </mxCell>
        <mxCell id="BcuslAUmBP9xwM7Xt82V-137" value="Duration" style="rounded=0;whiteSpace=wrap;html=1;" vertex="1" parent="BcuslAUmBP9xwM7Xt82V-487">
          <mxGeometry x="180" y="210" width="60" height="30" as="geometry" />
        </mxCell>
        <mxCell id="BcuslAUmBP9xwM7Xt82V-158" value="" style="endArrow=none;html=1;rounded=0;exitX=0.5;exitY=0;exitDx=0;exitDy=0;" edge="1" parent="BcuslAUmBP9xwM7Xt82V-487" source="BcuslAUmBP9xwM7Xt82V-173">
          <mxGeometry width="50" height="50" relative="1" as="geometry">
            <mxPoint x="356.5" y="260" as="sourcePoint" />
            <mxPoint x="426.5" y="140" as="targetPoint" />
          </mxGeometry>
        </mxCell>
        <mxCell id="BcuslAUmBP9xwM7Xt82V-159" value="" style="endArrow=none;html=1;rounded=0;exitX=0.5;exitY=0;exitDx=0;exitDy=0;" edge="1" parent="BcuslAUmBP9xwM7Xt82V-487" source="BcuslAUmBP9xwM7Xt82V-172">
          <mxGeometry width="50" height="50" relative="1" as="geometry">
            <mxPoint x="356.5" y="260" as="sourcePoint" />
            <mxPoint x="426.5" y="140" as="targetPoint" />
          </mxGeometry>
        </mxCell>
        <mxCell id="BcuslAUmBP9xwM7Xt82V-160" value="" style="endArrow=none;html=1;rounded=0;startArrow=none;startFill=0;targetPerimeterSpacing=0;endFill=0;strokeWidth=1;endSize=6;exitX=0.5;exitY=0;exitDx=0;exitDy=0;" edge="1" parent="BcuslAUmBP9xwM7Xt82V-487" source="BcuslAUmBP9xwM7Xt82V-170">
          <mxGeometry width="50" height="50" relative="1" as="geometry">
            <mxPoint x="446.5" y="350" as="sourcePoint" />
            <mxPoint x="426.5" y="140" as="targetPoint" />
            <Array as="points" />
          </mxGeometry>
        </mxCell>
        <mxCell id="BcuslAUmBP9xwM7Xt82V-161" value="" style="endArrow=none;html=1;rounded=0;startArrow=none;startFill=0;targetPerimeterSpacing=0;endFill=0;strokeWidth=1;endSize=6;exitX=0.5;exitY=0;exitDx=0;exitDy=0;" edge="1" parent="BcuslAUmBP9xwM7Xt82V-487" source="BcuslAUmBP9xwM7Xt82V-174">
          <mxGeometry width="50" height="50" relative="1" as="geometry">
            <mxPoint x="516.5" y="350" as="sourcePoint" />
            <mxPoint x="426.5" y="140" as="targetPoint" />
            <Array as="points" />
          </mxGeometry>
        </mxCell>
        <mxCell id="BcuslAUmBP9xwM7Xt82V-162" value="" style="endArrow=none;html=1;rounded=0;startArrow=none;startFill=0;targetPerimeterSpacing=0;endFill=0;strokeWidth=1;endSize=6;exitX=0.5;exitY=0;exitDx=0;exitDy=0;" edge="1" parent="BcuslAUmBP9xwM7Xt82V-487" source="BcuslAUmBP9xwM7Xt82V-171">
          <mxGeometry width="50" height="50" relative="1" as="geometry">
            <mxPoint x="343.5" y="355" as="sourcePoint" />
            <mxPoint x="426.5" y="140" as="targetPoint" />
            <Array as="points" />
          </mxGeometry>
        </mxCell>
        <mxCell id="BcuslAUmBP9xwM7Xt82V-163" value="Title" style="rounded=0;whiteSpace=wrap;html=1;" vertex="1" parent="BcuslAUmBP9xwM7Xt82V-487">
          <mxGeometry x="466.5" y="170" width="60" height="30" as="geometry" />
        </mxCell>
        <mxCell id="BcuslAUmBP9xwM7Xt82V-164" value="Artist" style="rounded=0;whiteSpace=wrap;html=1;" vertex="1" parent="BcuslAUmBP9xwM7Xt82V-487">
          <mxGeometry x="396.5" y="170" width="60" height="30" as="geometry" />
        </mxCell>
        <mxCell id="BcuslAUmBP9xwM7Xt82V-165" value="" style="endArrow=none;html=1;rounded=0;startArrow=none;startFill=0;targetPerimeterSpacing=0;endFill=0;strokeWidth=1;endSize=6;exitX=0.5;exitY=0;exitDx=0;exitDy=0;" edge="1" parent="BcuslAUmBP9xwM7Xt82V-487">
          <mxGeometry width="50" height="50" relative="1" as="geometry">
            <mxPoint x="426.5" y="170" as="sourcePoint" />
            <mxPoint x="426.3800000000001" y="140" as="targetPoint" />
            <Array as="points" />
          </mxGeometry>
        </mxCell>
        <mxCell id="BcuslAUmBP9xwM7Xt82V-166" value="" style="endArrow=none;html=1;rounded=0;startArrow=none;startFill=0;targetPerimeterSpacing=0;endFill=0;strokeWidth=1;endSize=6;entryX=0.5;entryY=1;entryDx=0;entryDy=0;exitX=0.5;exitY=0;exitDx=0;exitDy=0;" edge="1" parent="BcuslAUmBP9xwM7Xt82V-487">
          <mxGeometry width="50" height="50" relative="1" as="geometry">
            <mxPoint x="496.5" y="170" as="sourcePoint" />
            <mxPoint x="426.25" y="140" as="targetPoint" />
            <Array as="points" />
          </mxGeometry>
        </mxCell>
        <mxCell id="BcuslAUmBP9xwM7Xt82V-167" value="" style="endArrow=none;html=1;rounded=0;startArrow=none;startFill=0;targetPerimeterSpacing=0;endFill=0;strokeWidth=1;endSize=6;curved=1;" edge="1" parent="BcuslAUmBP9xwM7Xt82V-487">
          <mxGeometry width="50" height="50" relative="1" as="geometry">
            <mxPoint x="466.3800000000001" y="150" as="sourcePoint" />
            <mxPoint x="386.3800000000001" y="150" as="targetPoint" />
            <Array as="points">
              <mxPoint x="426.3800000000001" y="170" />
            </Array>
          </mxGeometry>
        </mxCell>
        <mxCell id="BcuslAUmBP9xwM7Xt82V-168" value="" style="endArrow=none;html=1;rounded=0;startArrow=none;startFill=0;targetPerimeterSpacing=0;endFill=0;strokeWidth=1;endSize=6;entryX=0.5;entryY=1;entryDx=0;entryDy=0;exitX=0.5;exitY=0;exitDx=0;exitDy=0;" edge="1" parent="BcuslAUmBP9xwM7Xt82V-487">
          <mxGeometry width="50" height="50" relative="1" as="geometry">
            <mxPoint x="356.5" y="170" as="sourcePoint" />
            <mxPoint x="426.25" y="140" as="targetPoint" />
            <Array as="points" />
          </mxGeometry>
        </mxCell>
        <mxCell id="BcuslAUmBP9xwM7Xt82V-169" value="Album" style="rounded=0;whiteSpace=wrap;html=1;" vertex="1" parent="BcuslAUmBP9xwM7Xt82V-487">
          <mxGeometry x="326.5" y="170" width="60" height="30" as="geometry" />
        </mxCell>
        <mxCell id="BcuslAUmBP9xwM7Xt82V-170" value="Year" style="rounded=0;whiteSpace=wrap;html=1;" vertex="1" parent="BcuslAUmBP9xwM7Xt82V-487">
          <mxGeometry x="396.5" y="210" width="60" height="30" as="geometry" />
        </mxCell>
        <mxCell id="BcuslAUmBP9xwM7Xt82V-171" value="Genre" style="rounded=0;whiteSpace=wrap;html=1;" vertex="1" parent="BcuslAUmBP9xwM7Xt82V-487">
          <mxGeometry x="326.5" y="210" width="60" height="30" as="geometry" />
        </mxCell>
        <mxCell id="BcuslAUmBP9xwM7Xt82V-172" value="Bitrate" style="rounded=0;whiteSpace=wrap;html=1;" vertex="1" parent="BcuslAUmBP9xwM7Xt82V-487">
          <mxGeometry x="396.5" y="250" width="60" height="30" as="geometry" />
        </mxCell>
        <mxCell id="BcuslAUmBP9xwM7Xt82V-173" value="Format" style="rounded=0;whiteSpace=wrap;html=1;" vertex="1" parent="BcuslAUmBP9xwM7Xt82V-487">
          <mxGeometry x="326.5" y="250" width="60" height="30" as="geometry" />
        </mxCell>
        <mxCell id="BcuslAUmBP9xwM7Xt82V-174" value="Duration" style="rounded=0;whiteSpace=wrap;html=1;" vertex="1" parent="BcuslAUmBP9xwM7Xt82V-487">
          <mxGeometry x="466.5" y="210" width="60" height="30" as="geometry" />
        </mxCell>
        <mxCell id="BcuslAUmBP9xwM7Xt82V-175" value="Album&lt;div&gt;Artist&lt;/div&gt;" style="rounded=0;whiteSpace=wrap;html=1;" vertex="1" parent="BcuslAUmBP9xwM7Xt82V-487">
          <mxGeometry x="326.5" y="290" width="60" height="30" as="geometry" />
        </mxCell>
        <mxCell id="BcuslAUmBP9xwM7Xt82V-184" value="" style="endArrow=oval;html=1;rounded=0;startArrow=none;startFill=0;targetPerimeterSpacing=10;endFill=1;strokeWidth=1;endSize=10;exitX=0.5;exitY=1;exitDx=0;exitDy=0;entryX=0.5;entryY=0;entryDx=0;entryDy=0;" edge="1" parent="BcuslAUmBP9xwM7Xt82V-487" source="BcuslAUmBP9xwM7Xt82V-115" target="BcuslAUmBP9xwM7Xt82V-112">
          <mxGeometry width="50" height="50" relative="1" as="geometry">
            <mxPoint x="465.6700000000001" y="10" as="sourcePoint" />
            <mxPoint x="465.6700000000001" y="90" as="targetPoint" />
            <Array as="points" />
          </mxGeometry>
        </mxCell>
        <mxCell id="BcuslAUmBP9xwM7Xt82V-185" value="" style="endArrow=oval;html=1;rounded=0;startArrow=none;startFill=0;targetPerimeterSpacing=10;endFill=0;strokeWidth=1;endSize=10;exitX=0.5;exitY=1;exitDx=0;exitDy=0;entryX=0.5;entryY=0;entryDx=0;entryDy=0;" edge="1" parent="BcuslAUmBP9xwM7Xt82V-487" source="BcuslAUmBP9xwM7Xt82V-115" target="BcuslAUmBP9xwM7Xt82V-113">
          <mxGeometry width="50" height="50" relative="1" as="geometry">
            <mxPoint x="86.5" y="-72.63" as="sourcePoint" />
            <mxPoint x="86.5" y="7.3700000000000045" as="targetPoint" />
            <Array as="points" />
          </mxGeometry>
        </mxCell>
        <mxCell id="BcuslAUmBP9xwM7Xt82V-186" value="" style="endArrow=oval;html=1;rounded=0;startArrow=none;startFill=0;targetPerimeterSpacing=10;endFill=0;strokeWidth=1;endSize=10;exitX=0.5;exitY=1;exitDx=0;exitDy=0;entryX=0.5;entryY=0;entryDx=0;entryDy=0;" edge="1" parent="BcuslAUmBP9xwM7Xt82V-487" source="BcuslAUmBP9xwM7Xt82V-115" target="BcuslAUmBP9xwM7Xt82V-114">
          <mxGeometry width="50" height="50" relative="1" as="geometry">
            <mxPoint x="96.5" y="-62.629999999999995" as="sourcePoint" />
            <mxPoint x="96.5" y="17.370000000000005" as="targetPoint" />
            <Array as="points" />
          </mxGeometry>
        </mxCell>
        <mxCell id="BcuslAUmBP9xwM7Xt82V-187" value="" style="endArrow=oval;html=1;rounded=0;startArrow=none;startFill=0;targetPerimeterSpacing=10;endFill=1;strokeWidth=1;endSize=10;exitX=0.5;exitY=1;exitDx=0;exitDy=0;entryX=0.5;entryY=0;entryDx=0;entryDy=0;" edge="1" parent="BcuslAUmBP9xwM7Xt82V-487" source="BcuslAUmBP9xwM7Xt82V-81" target="BcuslAUmBP9xwM7Xt82V-115">
          <mxGeometry width="50" height="50" relative="1" as="geometry">
            <mxPoint x="110" y="-122.63" as="sourcePoint" />
            <mxPoint x="110" y="-42.629999999999995" as="targetPoint" />
            <Array as="points" />
          </mxGeometry>
        </mxCell>
        <mxCell id="BcuslAUmBP9xwM7Xt82V-188" value="" style="endArrow=oval;html=1;rounded=0;startArrow=none;startFill=0;targetPerimeterSpacing=10;endFill=1;strokeWidth=1;endSize=10;exitX=0.5;exitY=1;exitDx=0;exitDy=0;entryX=0.5;entryY=0;entryDx=0;entryDy=0;" edge="1" parent="BcuslAUmBP9xwM7Xt82V-487" source="BcuslAUmBP9xwM7Xt82V-81" target="BcuslAUmBP9xwM7Xt82V-117">
          <mxGeometry width="50" height="50" relative="1" as="geometry">
            <mxPoint x="120" y="-112.63" as="sourcePoint" />
            <mxPoint x="120" y="-32.629999999999995" as="targetPoint" />
            <Array as="points" />
          </mxGeometry>
        </mxCell>
        <mxCell id="BcuslAUmBP9xwM7Xt82V-488" value="" style="group" vertex="1" connectable="0" parent="1">
          <mxGeometry x="1350" y="210" width="558.5" height="330" as="geometry" />
        </mxCell>
        <mxCell id="BcuslAUmBP9xwM7Xt82V-302" value="" style="endArrow=none;html=1;rounded=0;entryX=0.5;entryY=1;entryDx=0;entryDy=0;exitX=0.5;exitY=0;exitDx=0;exitDy=0;" edge="1" parent="BcuslAUmBP9xwM7Xt82V-488" source="BcuslAUmBP9xwM7Xt82V-214" target="BcuslAUmBP9xwM7Xt82V-246">
          <mxGeometry width="50" height="50" relative="1" as="geometry">
            <mxPoint x="240" y="210" as="sourcePoint" />
            <mxPoint x="290" y="160" as="targetPoint" />
          </mxGeometry>
        </mxCell>
        <mxCell id="BcuslAUmBP9xwM7Xt82V-303" value="" style="endArrow=none;html=1;rounded=0;entryX=0.5;entryY=1;entryDx=0;entryDy=0;" edge="1" parent="BcuslAUmBP9xwM7Xt82V-488" target="BcuslAUmBP9xwM7Xt82V-238">
          <mxGeometry width="50" height="50" relative="1" as="geometry">
            <mxPoint x="300" y="240" as="sourcePoint" />
            <mxPoint x="290" y="160" as="targetPoint" />
          </mxGeometry>
        </mxCell>
        <mxCell id="BcuslAUmBP9xwM7Xt82V-304" value="" style="endArrow=none;html=1;rounded=0;entryX=0.5;entryY=1;entryDx=0;entryDy=0;exitX=0.5;exitY=0;exitDx=0;exitDy=0;" edge="1" parent="BcuslAUmBP9xwM7Xt82V-488" source="BcuslAUmBP9xwM7Xt82V-214" target="BcuslAUmBP9xwM7Xt82V-195">
          <mxGeometry width="50" height="50" relative="1" as="geometry">
            <mxPoint x="240" y="210" as="sourcePoint" />
            <mxPoint x="290" y="160" as="targetPoint" />
          </mxGeometry>
        </mxCell>
        <mxCell id="BcuslAUmBP9xwM7Xt82V-305" value="" style="endArrow=none;html=1;rounded=0;entryX=0.5;entryY=1;entryDx=0;entryDy=0;" edge="1" parent="BcuslAUmBP9xwM7Xt82V-488" target="BcuslAUmBP9xwM7Xt82V-286">
          <mxGeometry width="50" height="50" relative="1" as="geometry">
            <mxPoint x="299.71000000000004" y="240" as="sourcePoint" />
            <mxPoint x="299.71000000000004" y="180" as="targetPoint" />
          </mxGeometry>
        </mxCell>
        <mxCell id="BcuslAUmBP9xwM7Xt82V-306" value="" style="endArrow=none;html=1;rounded=0;entryX=0.5;entryY=1;entryDx=0;entryDy=0;" edge="1" parent="BcuslAUmBP9xwM7Xt82V-488" target="BcuslAUmBP9xwM7Xt82V-230">
          <mxGeometry width="50" height="50" relative="1" as="geometry">
            <mxPoint x="300" y="240" as="sourcePoint" />
            <mxPoint x="290" y="160" as="targetPoint" />
          </mxGeometry>
        </mxCell>
        <mxCell id="BcuslAUmBP9xwM7Xt82V-292" value="" style="endArrow=none;html=1;rounded=0;exitX=0.5;exitY=0;exitDx=0;exitDy=0;" edge="1" parent="BcuslAUmBP9xwM7Xt82V-488" source="BcuslAUmBP9xwM7Xt82V-246">
          <mxGeometry width="50" height="50" relative="1" as="geometry">
            <mxPoint x="300" y="160" as="sourcePoint" />
            <mxPoint x="380" y="80" as="targetPoint" />
          </mxGeometry>
        </mxCell>
        <mxCell id="BcuslAUmBP9xwM7Xt82V-293" value="" style="endArrow=none;html=1;rounded=0;exitX=0.5;exitY=0;exitDx=0;exitDy=0;" edge="1" parent="BcuslAUmBP9xwM7Xt82V-488" source="BcuslAUmBP9xwM7Xt82V-222">
          <mxGeometry width="50" height="50" relative="1" as="geometry">
            <mxPoint x="300" y="160" as="sourcePoint" />
            <mxPoint x="380" y="80" as="targetPoint" />
          </mxGeometry>
        </mxCell>
        <mxCell id="BcuslAUmBP9xwM7Xt82V-294" value="" style="endArrow=none;html=1;rounded=0;exitX=0.5;exitY=0;exitDx=0;exitDy=0;" edge="1" parent="BcuslAUmBP9xwM7Xt82V-488" source="BcuslAUmBP9xwM7Xt82V-238">
          <mxGeometry width="50" height="50" relative="1" as="geometry">
            <mxPoint x="300" y="160" as="sourcePoint" />
            <mxPoint x="380" y="80" as="targetPoint" />
          </mxGeometry>
        </mxCell>
        <mxCell id="BcuslAUmBP9xwM7Xt82V-295" value="" style="endArrow=none;html=1;rounded=0;exitX=0.5;exitY=0;exitDx=0;exitDy=0;" edge="1" parent="BcuslAUmBP9xwM7Xt82V-488" source="BcuslAUmBP9xwM7Xt82V-270">
          <mxGeometry width="50" height="50" relative="1" as="geometry">
            <mxPoint x="300" y="160" as="sourcePoint" />
            <mxPoint x="380" y="80" as="targetPoint" />
          </mxGeometry>
        </mxCell>
        <mxCell id="BcuslAUmBP9xwM7Xt82V-199" value="" style="endArrow=none;html=1;rounded=0;entryX=0.5;entryY=1;entryDx=0;entryDy=0;exitX=0.5;exitY=0;exitDx=0;exitDy=0;" edge="1" parent="BcuslAUmBP9xwM7Xt82V-488" source="BcuslAUmBP9xwM7Xt82V-193" target="BcuslAUmBP9xwM7Xt82V-196">
          <mxGeometry width="50" height="50" relative="1" as="geometry">
            <mxPoint x="10" y="150" as="sourcePoint" />
            <mxPoint x="60" y="100" as="targetPoint" />
          </mxGeometry>
        </mxCell>
        <mxCell id="BcuslAUmBP9xwM7Xt82V-200" value="" style="endArrow=none;html=1;rounded=0;entryX=0.5;entryY=1;entryDx=0;entryDy=0;exitX=0.5;exitY=0;exitDx=0;exitDy=0;" edge="1" parent="BcuslAUmBP9xwM7Xt82V-488" source="BcuslAUmBP9xwM7Xt82V-190" target="BcuslAUmBP9xwM7Xt82V-196">
          <mxGeometry width="50" height="50" relative="1" as="geometry">
            <mxPoint x="70" y="150" as="sourcePoint" />
            <mxPoint x="120" y="100" as="targetPoint" />
          </mxGeometry>
        </mxCell>
        <mxCell id="BcuslAUmBP9xwM7Xt82V-201" value="" style="endArrow=none;html=1;rounded=0;entryX=0.5;entryY=1;entryDx=0;entryDy=0;exitX=0.5;exitY=0;exitDx=0;exitDy=0;" edge="1" parent="BcuslAUmBP9xwM7Xt82V-488" source="BcuslAUmBP9xwM7Xt82V-111" target="BcuslAUmBP9xwM7Xt82V-196">
          <mxGeometry width="50" height="50" relative="1" as="geometry">
            <mxPoint x="10" y="150" as="sourcePoint" />
            <mxPoint x="60" y="100" as="targetPoint" />
          </mxGeometry>
        </mxCell>
        <mxCell id="BcuslAUmBP9xwM7Xt82V-202" value="" style="endArrow=none;html=1;rounded=0;entryX=0.5;entryY=1;entryDx=0;entryDy=0;exitX=0.5;exitY=0;exitDx=0;exitDy=0;" edge="1" parent="BcuslAUmBP9xwM7Xt82V-488" source="BcuslAUmBP9xwM7Xt82V-197" target="BcuslAUmBP9xwM7Xt82V-196">
          <mxGeometry width="50" height="50" relative="1" as="geometry">
            <mxPoint x="10" y="150" as="sourcePoint" />
            <mxPoint x="60" y="100" as="targetPoint" />
          </mxGeometry>
        </mxCell>
        <mxCell id="BcuslAUmBP9xwM7Xt82V-203" value="" style="endArrow=none;html=1;rounded=0;entryX=0.5;entryY=1;entryDx=0;entryDy=0;exitX=0.5;exitY=0;exitDx=0;exitDy=0;" edge="1" parent="BcuslAUmBP9xwM7Xt82V-488" source="BcuslAUmBP9xwM7Xt82V-194" target="BcuslAUmBP9xwM7Xt82V-196">
          <mxGeometry width="50" height="50" relative="1" as="geometry">
            <mxPoint x="10" y="150" as="sourcePoint" />
            <mxPoint x="60" y="100" as="targetPoint" />
          </mxGeometry>
        </mxCell>
        <mxCell id="BcuslAUmBP9xwM7Xt82V-204" value="" style="endArrow=none;html=1;rounded=0;entryX=0.5;entryY=1;entryDx=0;entryDy=0;exitX=0.5;exitY=0;exitDx=0;exitDy=0;" edge="1" parent="BcuslAUmBP9xwM7Xt82V-488" source="BcuslAUmBP9xwM7Xt82V-191" target="BcuslAUmBP9xwM7Xt82V-196">
          <mxGeometry width="50" height="50" relative="1" as="geometry">
            <mxPoint x="10" y="150" as="sourcePoint" />
            <mxPoint x="60" y="100" as="targetPoint" />
          </mxGeometry>
        </mxCell>
        <mxCell id="BcuslAUmBP9xwM7Xt82V-5" value="style" style="rounded=0;whiteSpace=wrap;html=1;" vertex="1" parent="BcuslAUmBP9xwM7Xt82V-488">
          <mxGeometry x="200" width="60" height="30" as="geometry" />
        </mxCell>
        <mxCell id="BcuslAUmBP9xwM7Xt82V-111" value="background" style="rounded=0;whiteSpace=wrap;html=1;" vertex="1" parent="BcuslAUmBP9xwM7Xt82V-488">
          <mxGeometry x="20" y="150" width="70" height="30" as="geometry" />
        </mxCell>
        <mxCell id="BcuslAUmBP9xwM7Xt82V-131" value="preset" style="rounded=0;whiteSpace=wrap;html=1;" vertex="1" parent="BcuslAUmBP9xwM7Xt82V-488">
          <mxGeometry y="50" width="60" height="30" as="geometry" />
        </mxCell>
        <mxCell id="BcuslAUmBP9xwM7Xt82V-189" value="" style="endArrow=oval;html=1;rounded=0;startArrow=none;startFill=0;targetPerimeterSpacing=10;endFill=0;strokeWidth=1;endSize=10;exitX=0.5;exitY=1;exitDx=0;exitDy=0;entryX=0.5;entryY=0;entryDx=0;entryDy=0;" edge="1" parent="BcuslAUmBP9xwM7Xt82V-488" source="BcuslAUmBP9xwM7Xt82V-5" target="BcuslAUmBP9xwM7Xt82V-131">
          <mxGeometry width="50" height="50" relative="1" as="geometry">
            <mxPoint x="-430" y="-112.63" as="sourcePoint" />
            <mxPoint x="-430" y="-32.629999999999995" as="targetPoint" />
            <Array as="points" />
          </mxGeometry>
        </mxCell>
        <mxCell id="BcuslAUmBP9xwM7Xt82V-190" value="secondary" style="rounded=0;whiteSpace=wrap;html=1;" vertex="1" parent="BcuslAUmBP9xwM7Xt82V-488">
          <mxGeometry x="110" y="110" width="60" height="30" as="geometry" />
        </mxCell>
        <mxCell id="BcuslAUmBP9xwM7Xt82V-191" value="background&lt;div&gt;Secondary&lt;/div&gt;&lt;div&gt;Paper&lt;/div&gt;" style="rounded=0;whiteSpace=wrap;html=1;" vertex="1" parent="BcuslAUmBP9xwM7Xt82V-488">
          <mxGeometry x="110" y="194.75" width="70" height="45.25" as="geometry" />
        </mxCell>
        <mxCell id="BcuslAUmBP9xwM7Xt82V-193" value="primary" style="rounded=0;whiteSpace=wrap;html=1;" vertex="1" parent="BcuslAUmBP9xwM7Xt82V-488">
          <mxGeometry x="30" y="110" width="60" height="30" as="geometry" />
        </mxCell>
        <mxCell id="BcuslAUmBP9xwM7Xt82V-194" value="background&lt;div&gt;Secondary&lt;/div&gt;" style="rounded=0;whiteSpace=wrap;html=1;" vertex="1" parent="BcuslAUmBP9xwM7Xt82V-488">
          <mxGeometry x="20" y="194.75" width="70" height="30" as="geometry" />
        </mxCell>
        <mxCell id="BcuslAUmBP9xwM7Xt82V-195" value="header" style="rounded=0;whiteSpace=wrap;html=1;" vertex="1" parent="BcuslAUmBP9xwM7Xt82V-488">
          <mxGeometry x="200" y="110" width="60" height="30" as="geometry" />
        </mxCell>
        <mxCell id="BcuslAUmBP9xwM7Xt82V-196" value="plette" style="rounded=0;whiteSpace=wrap;html=1;" vertex="1" parent="BcuslAUmBP9xwM7Xt82V-488">
          <mxGeometry x="70" y="50" width="60" height="30" as="geometry" />
        </mxCell>
        <mxCell id="BcuslAUmBP9xwM7Xt82V-197" value="background&lt;div&gt;paper&lt;/div&gt;" style="rounded=0;whiteSpace=wrap;html=1;" vertex="1" parent="BcuslAUmBP9xwM7Xt82V-488">
          <mxGeometry x="110" y="150" width="70" height="30" as="geometry" />
        </mxCell>
        <mxCell id="BcuslAUmBP9xwM7Xt82V-198" value="components" style="rounded=0;whiteSpace=wrap;html=1;" vertex="1" parent="BcuslAUmBP9xwM7Xt82V-488">
          <mxGeometry x="339.5" y="50" width="80" height="30" as="geometry" />
        </mxCell>
        <mxCell id="BcuslAUmBP9xwM7Xt82V-205" value="" style="endArrow=none;html=1;rounded=0;startArrow=none;startFill=0;targetPerimeterSpacing=0;endFill=0;strokeWidth=1;endSize=6;curved=1;" edge="1" parent="BcuslAUmBP9xwM7Xt82V-488">
          <mxGeometry width="50" height="50" relative="1" as="geometry">
            <mxPoint x="120" y="90" as="sourcePoint" />
            <mxPoint x="80" y="90" as="targetPoint" />
            <Array as="points">
              <mxPoint x="100" y="100" />
            </Array>
          </mxGeometry>
        </mxCell>
        <mxCell id="BcuslAUmBP9xwM7Xt82V-206" value="" style="endArrow=oval;html=1;rounded=0;startArrow=none;startFill=0;targetPerimeterSpacing=10;endFill=0;strokeWidth=1;endSize=10;exitX=0.5;exitY=1;exitDx=0;exitDy=0;entryX=0.5;entryY=0;entryDx=0;entryDy=0;" edge="1" parent="BcuslAUmBP9xwM7Xt82V-488" source="BcuslAUmBP9xwM7Xt82V-5" target="BcuslAUmBP9xwM7Xt82V-196">
          <mxGeometry width="50" height="50" relative="1" as="geometry">
            <mxPoint x="-430" y="-112.63" as="sourcePoint" />
            <mxPoint x="-430" y="-32.629999999999995" as="targetPoint" />
            <Array as="points" />
          </mxGeometry>
        </mxCell>
        <mxCell id="BcuslAUmBP9xwM7Xt82V-212" value="DEFAULT" style="rounded=0;whiteSpace=wrap;html=1;" vertex="1" parent="BcuslAUmBP9xwM7Xt82V-488">
          <mxGeometry x="200" y="300" width="60" height="30" as="geometry" />
        </mxCell>
        <mxCell id="BcuslAUmBP9xwM7Xt82V-213" value="MINIMAL" style="rounded=0;whiteSpace=wrap;html=1;" vertex="1" parent="BcuslAUmBP9xwM7Xt82V-488">
          <mxGeometry x="270" y="300" width="60" height="30" as="geometry" />
        </mxCell>
        <mxCell id="BcuslAUmBP9xwM7Xt82V-214" value="variant" style="rounded=0;whiteSpace=wrap;html=1;" vertex="1" parent="BcuslAUmBP9xwM7Xt82V-488">
          <mxGeometry x="270" y="240" width="60" height="30" as="geometry" />
        </mxCell>
        <mxCell id="BcuslAUmBP9xwM7Xt82V-215" value="MODERN" style="rounded=0;whiteSpace=wrap;html=1;" vertex="1" parent="BcuslAUmBP9xwM7Xt82V-488">
          <mxGeometry x="340" y="300" width="60" height="30" as="geometry" />
        </mxCell>
        <mxCell id="BcuslAUmBP9xwM7Xt82V-216" value="" style="endArrow=none;html=1;rounded=0;startArrow=none;startFill=0;targetPerimeterSpacing=0;endFill=0;strokeWidth=1;endSize=6;exitX=0.5;exitY=0;exitDx=0;exitDy=0;" edge="1" parent="BcuslAUmBP9xwM7Xt82V-488">
          <mxGeometry width="50" height="50" relative="1" as="geometry">
            <mxPoint x="300" y="300" as="sourcePoint" />
            <mxPoint x="299.8800000000001" y="270" as="targetPoint" />
            <Array as="points" />
          </mxGeometry>
        </mxCell>
        <mxCell id="BcuslAUmBP9xwM7Xt82V-217" value="" style="endArrow=none;html=1;rounded=0;startArrow=none;startFill=0;targetPerimeterSpacing=0;endFill=0;strokeWidth=1;endSize=6;entryX=0.5;entryY=1;entryDx=0;entryDy=0;exitX=0.5;exitY=0;exitDx=0;exitDy=0;" edge="1" parent="BcuslAUmBP9xwM7Xt82V-488">
          <mxGeometry width="50" height="50" relative="1" as="geometry">
            <mxPoint x="370" y="300" as="sourcePoint" />
            <mxPoint x="299.75" y="270" as="targetPoint" />
            <Array as="points" />
          </mxGeometry>
        </mxCell>
        <mxCell id="BcuslAUmBP9xwM7Xt82V-219" value="" style="endArrow=none;html=1;rounded=0;startArrow=none;startFill=0;targetPerimeterSpacing=0;endFill=0;strokeWidth=1;endSize=6;entryX=0.5;entryY=1;entryDx=0;entryDy=0;exitX=0.5;exitY=0;exitDx=0;exitDy=0;" edge="1" parent="BcuslAUmBP9xwM7Xt82V-488">
          <mxGeometry width="50" height="50" relative="1" as="geometry">
            <mxPoint x="230" y="300" as="sourcePoint" />
            <mxPoint x="299.75" y="270" as="targetPoint" />
            <Array as="points" />
          </mxGeometry>
        </mxCell>
        <mxCell id="BcuslAUmBP9xwM7Xt82V-222" value="landing" style="rounded=0;whiteSpace=wrap;html=1;" vertex="1" parent="BcuslAUmBP9xwM7Xt82V-488">
          <mxGeometry x="270" y="150" width="60" height="30" as="geometry" />
        </mxCell>
        <mxCell id="BcuslAUmBP9xwM7Xt82V-230" value="contact" style="rounded=0;whiteSpace=wrap;html=1;" vertex="1" parent="BcuslAUmBP9xwM7Xt82V-488">
          <mxGeometry x="340" y="110" width="60" height="30" as="geometry" />
        </mxCell>
        <mxCell id="BcuslAUmBP9xwM7Xt82V-238" value="tos" style="rounded=0;whiteSpace=wrap;html=1;" vertex="1" parent="BcuslAUmBP9xwM7Xt82V-488">
          <mxGeometry x="340" y="150" width="60" height="30" as="geometry" />
        </mxCell>
        <mxCell id="BcuslAUmBP9xwM7Xt82V-246" value="privacy" style="rounded=0;whiteSpace=wrap;html=1;" vertex="1" parent="BcuslAUmBP9xwM7Xt82V-488">
          <mxGeometry x="200" y="150" width="60" height="30" as="geometry" />
        </mxCell>
        <mxCell id="BcuslAUmBP9xwM7Xt82V-270" value="IO" style="rounded=0;whiteSpace=wrap;html=1;" vertex="1" parent="BcuslAUmBP9xwM7Xt82V-488">
          <mxGeometry x="270" y="190" width="60" height="30" as="geometry" />
        </mxCell>
        <mxCell id="BcuslAUmBP9xwM7Xt82V-276" value="DEFAULT" style="rounded=0;whiteSpace=wrap;html=1;" vertex="1" parent="BcuslAUmBP9xwM7Xt82V-488">
          <mxGeometry x="419.5" y="160" width="60" height="30" as="geometry" />
        </mxCell>
        <mxCell id="BcuslAUmBP9xwM7Xt82V-278" value="songView" style="rounded=0;whiteSpace=wrap;html=1;" vertex="1" parent="BcuslAUmBP9xwM7Xt82V-488">
          <mxGeometry x="459" y="110" width="60" height="30" as="geometry" />
        </mxCell>
        <mxCell id="BcuslAUmBP9xwM7Xt82V-279" value="MODERN" style="rounded=0;whiteSpace=wrap;html=1;" vertex="1" parent="BcuslAUmBP9xwM7Xt82V-488">
          <mxGeometry x="498.5" y="160" width="60" height="30" as="geometry" />
        </mxCell>
        <mxCell id="BcuslAUmBP9xwM7Xt82V-281" value="" style="endArrow=none;html=1;rounded=0;startArrow=none;startFill=0;targetPerimeterSpacing=0;endFill=0;strokeWidth=1;endSize=6;entryX=0.5;entryY=1;entryDx=0;entryDy=0;exitX=0.5;exitY=0;exitDx=0;exitDy=0;" edge="1" parent="BcuslAUmBP9xwM7Xt82V-488" source="BcuslAUmBP9xwM7Xt82V-279">
          <mxGeometry width="50" height="50" relative="1" as="geometry">
            <mxPoint x="559" y="170" as="sourcePoint" />
            <mxPoint x="488.75" y="140" as="targetPoint" />
            <Array as="points" />
          </mxGeometry>
        </mxCell>
        <mxCell id="BcuslAUmBP9xwM7Xt82V-283" value="" style="endArrow=none;html=1;rounded=0;startArrow=none;startFill=0;targetPerimeterSpacing=0;endFill=0;strokeWidth=1;endSize=6;entryX=0.5;entryY=1;entryDx=0;entryDy=0;exitX=0.5;exitY=0;exitDx=0;exitDy=0;" edge="1" parent="BcuslAUmBP9xwM7Xt82V-488" source="BcuslAUmBP9xwM7Xt82V-276">
          <mxGeometry width="50" height="50" relative="1" as="geometry">
            <mxPoint x="419" y="170" as="sourcePoint" />
            <mxPoint x="488.75" y="140" as="targetPoint" />
            <Array as="points" />
          </mxGeometry>
        </mxCell>
        <mxCell id="BcuslAUmBP9xwM7Xt82V-284" value="" style="triangle;whiteSpace=wrap;html=1;rotation=-90;fillColor=#000000;" vertex="1" parent="BcuslAUmBP9xwM7Xt82V-488">
          <mxGeometry x="295" y="253" width="10" height="45" as="geometry" />
        </mxCell>
        <mxCell id="BcuslAUmBP9xwM7Xt82V-286" value="footer" style="rounded=0;whiteSpace=wrap;html=1;" vertex="1" parent="BcuslAUmBP9xwM7Xt82V-488">
          <mxGeometry x="270" y="110" width="60" height="30" as="geometry" />
        </mxCell>
        <mxCell id="BcuslAUmBP9xwM7Xt82V-287" value="ž" style="triangle;whiteSpace=wrap;html=1;rotation=-90;fillColor=#000000;" vertex="1" parent="BcuslAUmBP9xwM7Xt82V-488">
          <mxGeometry x="484" y="125.38" width="10" height="39.25" as="geometry" />
        </mxCell>
        <mxCell id="BcuslAUmBP9xwM7Xt82V-288" value="" style="endArrow=none;html=1;rounded=0;entryX=0.5;entryY=1;entryDx=0;entryDy=0;exitX=0.5;exitY=0;exitDx=0;exitDy=0;" edge="1" parent="BcuslAUmBP9xwM7Xt82V-488" source="BcuslAUmBP9xwM7Xt82V-195" target="BcuslAUmBP9xwM7Xt82V-198">
          <mxGeometry width="50" height="50" relative="1" as="geometry">
            <mxPoint x="230" y="55" as="sourcePoint" />
            <mxPoint x="309.5" y="-25" as="targetPoint" />
          </mxGeometry>
        </mxCell>
        <mxCell id="BcuslAUmBP9xwM7Xt82V-289" value="" style="endArrow=none;html=1;rounded=0;entryX=0.5;entryY=1;entryDx=0;entryDy=0;exitX=0.5;exitY=0;exitDx=0;exitDy=0;" edge="1" parent="BcuslAUmBP9xwM7Xt82V-488" source="BcuslAUmBP9xwM7Xt82V-286" target="BcuslAUmBP9xwM7Xt82V-198">
          <mxGeometry width="50" height="50" relative="1" as="geometry">
            <mxPoint x="300" y="160" as="sourcePoint" />
            <mxPoint x="350" y="110" as="targetPoint" />
          </mxGeometry>
        </mxCell>
        <mxCell id="BcuslAUmBP9xwM7Xt82V-290" value="" style="endArrow=none;html=1;rounded=0;entryX=0.5;entryY=1;entryDx=0;entryDy=0;exitX=0.5;exitY=0;exitDx=0;exitDy=0;" edge="1" parent="BcuslAUmBP9xwM7Xt82V-488" source="BcuslAUmBP9xwM7Xt82V-230" target="BcuslAUmBP9xwM7Xt82V-198">
          <mxGeometry width="50" height="50" relative="1" as="geometry">
            <mxPoint x="300" y="160" as="sourcePoint" />
            <mxPoint x="350" y="110" as="targetPoint" />
          </mxGeometry>
        </mxCell>
        <mxCell id="BcuslAUmBP9xwM7Xt82V-291" value="" style="endArrow=none;html=1;rounded=0;entryX=0.5;entryY=1;entryDx=0;entryDy=0;exitX=0.5;exitY=0;exitDx=0;exitDy=0;" edge="1" parent="BcuslAUmBP9xwM7Xt82V-488" source="BcuslAUmBP9xwM7Xt82V-278" target="BcuslAUmBP9xwM7Xt82V-198">
          <mxGeometry width="50" height="50" relative="1" as="geometry">
            <mxPoint x="300" y="160" as="sourcePoint" />
            <mxPoint x="350" y="110" as="targetPoint" />
          </mxGeometry>
        </mxCell>
        <mxCell id="BcuslAUmBP9xwM7Xt82V-300" value="" style="endArrow=none;html=1;rounded=0;startArrow=none;startFill=0;targetPerimeterSpacing=0;endFill=0;strokeWidth=1;endSize=6;curved=1;" edge="1" parent="BcuslAUmBP9xwM7Xt82V-488">
          <mxGeometry width="50" height="50" relative="1" as="geometry">
            <mxPoint x="410" y="88" as="sourcePoint" />
            <mxPoint x="340" y="88" as="targetPoint" />
            <Array as="points">
              <mxPoint x="380" y="108" />
            </Array>
          </mxGeometry>
        </mxCell>
        <mxCell id="BcuslAUmBP9xwM7Xt82V-309" value="" style="endArrow=oval;html=1;rounded=0;startArrow=none;startFill=0;targetPerimeterSpacing=10;endFill=0;strokeWidth=1;endSize=10;entryX=0.5;entryY=0;entryDx=0;entryDy=0;" edge="1" parent="BcuslAUmBP9xwM7Xt82V-488" target="BcuslAUmBP9xwM7Xt82V-198">
          <mxGeometry width="50" height="50" relative="1" as="geometry">
            <mxPoint x="230" y="30" as="sourcePoint" />
            <mxPoint x="229.5" y="105" as="targetPoint" />
            <Array as="points" />
          </mxGeometry>
        </mxCell>
        <mxCell id="BcuslAUmBP9xwM7Xt82V-490" value="" style="endArrow=oval;html=1;rounded=0;startArrow=none;startFill=0;targetPerimeterSpacing=10;endFill=1;strokeWidth=1;endSize=10;" edge="1" parent="1">
          <mxGeometry width="50" height="50" relative="1" as="geometry">
            <mxPoint x="130" y="150" as="sourcePoint" />
            <mxPoint x="129.51999999999998" y="220" as="targetPoint" />
            <Array as="points" />
          </mxGeometry>
        </mxCell>
        <mxCell id="BcuslAUmBP9xwM7Xt82V-495" value="" style="endArrow=oval;html=1;rounded=0;startArrow=none;startFill=0;targetPerimeterSpacing=10;endFill=1;strokeWidth=1;endSize=10;entryX=0.5;entryY=0;entryDx=0;entryDy=0;exitX=0.5;exitY=1;exitDx=0;exitDy=0;" edge="1" parent="1" source="ZfFCDJcKIeYzzecp-zNq-1" target="ZfFCDJcKIeYzzecp-zNq-2">
          <mxGeometry width="50" height="50" relative="1" as="geometry">
            <mxPoint x="620" y="-30" as="sourcePoint" />
            <mxPoint x="620" y="50" as="targetPoint" />
            <Array as="points">
              <mxPoint x="830" y="150" />
              <mxPoint x="50" y="150" />
            </Array>
          </mxGeometry>
        </mxCell>
        <mxCell id="BcuslAUmBP9xwM7Xt82V-496" value="" style="endArrow=oval;html=1;rounded=0;startArrow=none;startFill=0;targetPerimeterSpacing=10;endFill=1;strokeWidth=1;endSize=10;" edge="1" parent="1">
          <mxGeometry width="50" height="50" relative="1" as="geometry">
            <mxPoint x="210.48000000000002" y="150" as="sourcePoint" />
            <mxPoint x="210" y="220" as="targetPoint" />
            <Array as="points" />
          </mxGeometry>
        </mxCell>
        <mxCell id="BcuslAUmBP9xwM7Xt82V-497" value="" style="endArrow=oval;html=1;rounded=0;startArrow=none;startFill=0;targetPerimeterSpacing=10;endFill=1;strokeWidth=1;endSize=10;entryX=0.5;entryY=0;entryDx=0;entryDy=0;exitX=0.5;exitY=1;exitDx=0;exitDy=0;" edge="1" parent="1" source="ZfFCDJcKIeYzzecp-zNq-1" target="BcuslAUmBP9xwM7Xt82V-5">
          <mxGeometry width="50" height="50" relative="1" as="geometry">
            <mxPoint x="1500.48" y="120" as="sourcePoint" />
            <mxPoint x="1500" y="190" as="targetPoint" />
            <Array as="points">
              <mxPoint x="830" y="150" />
              <mxPoint x="1580" y="150" />
            </Array>
          </mxGeometry>
        </mxCell>
        <mxCell id="BcuslAUmBP9xwM7Xt82V-498" value="" style="endArrow=oval;html=1;rounded=0;startArrow=none;startFill=0;targetPerimeterSpacing=10;endFill=1;strokeWidth=1;endSize=10;" edge="1" parent="1">
          <mxGeometry width="50" height="50" relative="1" as="geometry">
            <mxPoint x="412.48" y="150" as="sourcePoint" />
            <mxPoint x="412" y="220" as="targetPoint" />
            <Array as="points" />
          </mxGeometry>
        </mxCell>
        <mxCell id="BcuslAUmBP9xwM7Xt82V-499" value="" style="endArrow=oval;html=1;rounded=0;startArrow=none;startFill=0;targetPerimeterSpacing=10;endFill=1;strokeWidth=1;endSize=10;" edge="1" parent="1">
          <mxGeometry width="50" height="50" relative="1" as="geometry">
            <mxPoint x="630.48" y="150" as="sourcePoint" />
            <mxPoint x="630" y="220" as="targetPoint" />
            <Array as="points" />
          </mxGeometry>
        </mxCell>
        <mxCell id="BcuslAUmBP9xwM7Xt82V-500" value="" style="endArrow=oval;html=1;rounded=0;startArrow=none;startFill=0;targetPerimeterSpacing=10;endFill=1;strokeWidth=1;endSize=10;" edge="1" parent="1">
          <mxGeometry width="50" height="50" relative="1" as="geometry">
            <mxPoint x="1030.48" y="150" as="sourcePoint" />
            <mxPoint x="1030" y="220" as="targetPoint" />
            <Array as="points" />
          </mxGeometry>
        </mxCell>
      </root>
    </mxGraphModel>
  </diagram>
</mxfile>
